<svg xmlns="http://www.w3.org/2000/svg" width="30" height="28" viewBox="0 0 30 28">
  <g id="browser" transform="translate(0 -16.017)">
    <path id="Path_1341" data-name="Path 1341" d="M63.011,208.1H42.742A2.608,2.608,0,0,1,40,205.66V192.812a.96.96,0,0,1,1.908,0V205.66a.794.794,0,0,0,.835.743H63.011a.794.794,0,0,0,.835-.743V192.812a.96.96,0,0,1,1.908,0V205.66A2.608,2.608,0,0,1,63.011,208.1Z" transform="translate(-37.876 -164.085)" fill="#707070"/>
    <path id="Path_1342" data-name="Path 1342" d="M29.063,29.179a.986.986,0,0,1-.663-.249L16.74,18.367a2.648,2.648,0,0,0-3.48,0L1.6,28.93a1.008,1.008,0,0,1-1.326,0,.794.794,0,0,1,0-1.2L11.934,17.166a4.666,4.666,0,0,1,6.132,0L29.726,27.729a.794.794,0,0,1,0,1.2.986.986,0,0,1-.663.249Z" fill="#707070"/>
    <path id="Path_1343" data-name="Path 1343" d="M183.644,299.025h-6.8a.849.849,0,0,1-.849-.849v-7.538a2.657,2.657,0,0,1,2.654-2.654h3.185a2.657,2.657,0,0,1,2.654,2.654v7.538A.849.849,0,0,1,183.644,299.025Zm-5.946-1.7h5.1v-6.689a.957.957,0,0,0-.956-.956h-3.185a.957.957,0,0,0-.956.956Z" transform="translate(-165.247 -255.008)" fill="#707070"/>
  </g>
</svg>
