<svg xmlns="http://www.w3.org/2000/svg" width="19.821" height="26.447" viewBox="0 0 19.821 26.447">
  <g id="checklist" transform="translate(-75.1 -16)">
    <path id="Path_1582" data-name="Path 1582" d="M92.015,17.794h-4.25a3.012,3.012,0,0,0-5.51,0h-4.25A2.91,2.91,0,0,0,75.1,20.7V39.542a2.91,2.91,0,0,0,2.906,2.906h14.01a2.91,2.91,0,0,0,2.906-2.906V20.7A2.91,2.91,0,0,0,92.015,17.794Zm-9.283,1.323a.663.663,0,0,0,.646-.519,1.679,1.679,0,0,1,3.26,0,.663.663,0,0,0,.646.519H88.6V19.7a1.583,1.583,0,0,1-1.582,1.582H83A1.583,1.583,0,0,1,81.419,19.7v-.582ZM93.6,39.542a1.583,1.583,0,0,1-1.582,1.582H78.006a1.583,1.583,0,0,1-1.582-1.582V20.7a1.583,1.583,0,0,1,1.582-1.582h2.1V19.7a2.91,2.91,0,0,0,2.906,2.906h4.012A2.91,2.91,0,0,0,89.925,19.7v-.582h2.1A1.583,1.583,0,0,1,93.6,20.7V39.542Z" transform="translate(0)" fill="#5063ee"/>
    <path id="Path_1583" data-name="Path 1583" d="M187.028,243.46l-4.34,4.239-2.2-2.154a.661.661,0,0,0-.932.937l.011.011,2.667,2.6a.668.668,0,0,0,.926,0l4.8-4.689a.66.66,0,0,0,.011-.932.668.668,0,0,0-.942-.016Z" transform="translate(-98.744 -215.245)" fill="#5063ee"/>
  </g>
</svg>
