<svg xmlns="http://www.w3.org/2000/svg" width="21.475" height="23" viewBox="0 0 21.475 23">
  <g id="contract" transform="translate(-16.964)">
    <g id="Group_666" data-name="Group 666" transform="translate(16.964)">
      <g id="Group_665" data-name="Group 665">
        <path id="Path_1274" data-name="Path 1274" d="M307.1,170.854a.383.383,0,0,0,.383.383h3.835a.383.383,0,0,0,0-.767h-3.835A.383.383,0,0,0,307.1,170.854Z" transform="translate(-294.059 -162.81)" fill="#fff"/>
        <path id="Path_1275" data-name="Path 1275" d="M358.3,222.054a.383.383,0,0,0,.383.383h2.3a.383.383,0,0,0,0-.767h-2.3A.383.383,0,0,0,358.3,222.054Z" transform="translate(-342.958 -211.709)" fill="#fff"/>
        <path id="Path_1276" data-name="Path 1276" d="M325.314,120.038a.383.383,0,0,0,0-.767h-.767a.383.383,0,0,0,0,.767Z" transform="translate(-310.358 -113.911)" fill="#fff"/>
        <path id="Path_1277" data-name="Path 1277" d="M239.214,221.67a.383.383,0,1,0,0,.767h3.835a.383.383,0,1,0,0-.767Z" transform="translate(-228.86 -211.708)" fill="#fff"/>
        <path id="Path_1278" data-name="Path 1278" d="M61.836,53.111H54.549a1.152,1.152,0,0,1-1.15-1.15V34.32a.383.383,0,0,0-.383-.383A1.92,1.92,0,0,0,51.1,35.854a.383.383,0,1,0,.767,0,1.153,1.153,0,0,1,.767-1.085V51.961a1.92,1.92,0,0,0,1.917,1.917h7.286a.383.383,0,0,0,0-.767Z" transform="translate(-49.564 -32.412)" fill="#fff"/>
        <path id="Path_1279" data-name="Path 1279" d="M153.881,171.238h5.369a.383.383,0,0,0,0-.767h-5.369a.383.383,0,1,0,0,.767Z" transform="translate(-147.362 -162.81)" fill="#fff"/>
        <path id="Path_1280" data-name="Path 1280" d="M153.881,120.038h1.534a.383.383,0,0,0,0-.767h-1.534a.383.383,0,1,0,0,.767Z" transform="translate(-147.362 -113.911)" fill="#fff"/>
        <path id="Path_1281" data-name="Path 1281" d="M225.215,119.27h-3.068a.383.383,0,1,0,0,.767h3.068a.383.383,0,0,0,0-.767Z" transform="translate(-212.56 -113.91)" fill="#fff"/>
        <path id="Path_1282" data-name="Path 1282" d="M34.988,0H20.415a3.455,3.455,0,0,0-3.451,3.438v.018a3.465,3.465,0,0,0,1.725,2.976.383.383,0,0,0,.384-.663,2.679,2.679,0,0,1,1.342-5H34.988a2.688,2.688,0,0,1,2.684,2.684V19.558a1.116,1.116,0,0,1-.157.564.383.383,0,0,0,.661.389,1.881,1.881,0,0,0,.263-.953V3.451A3.455,3.455,0,0,0,34.988,0Z" transform="translate(-16.964)" fill="#fff"/>
        <path id="Path_1283" data-name="Path 1283" d="M345.833,343.438a2.3,2.3,0,1,0-2.3,2.3A2.3,2.3,0,0,0,345.833,343.438Zm-2.3,1.534a1.534,1.534,0,1,1,1.534-1.534A1.535,1.535,0,0,1,343.532,344.972Z" transform="translate(-326.658 -325.806)" fill="#fff"/>
        <path id="Path_1284" data-name="Path 1284" d="M312.421,434.2a.384.384,0,0,0-.524.14l-.826,1.431-.131-.2a.381.381,0,0,0-.3-.171l-.237-.014.84-1.453a.384.384,0,0,0-.665-.383l-1.149,1.991a.383.383,0,0,0,.309.574l.665.04.367.556a.383.383,0,0,0,.32.172h.012a.385.385,0,0,0,.321-.192l1.136-1.968A.383.383,0,0,0,312.421,434.2Z" transform="translate(-296.24 -413.884)" fill="#fff"/>
        <path id="Path_1285" data-name="Path 1285" d="M405.7,433.953a.384.384,0,0,0-.665.383l.83,1.435-.237.014a.385.385,0,0,0-.3.171l-.13.2-.821-1.424a.384.384,0,0,0-.665.384l1.132,1.961a.385.385,0,0,0,.321.192h.012a.385.385,0,0,0,.32-.172l.367-.555.664-.04a.384.384,0,0,0,.31-.574Z" transform="translate(-386.283 -414.267)" fill="#fff"/>
        <path id="Path_1286" data-name="Path 1286" d="M153.881,222.438h2.3a.383.383,0,0,0,0-.767h-2.3a.383.383,0,1,0,0,.767Z" transform="translate(-147.362 -211.709)" fill="#fff"/>
        <path id="Path_1287" data-name="Path 1287" d="M153.881,273.638h4.6a.383.383,0,1,0,0-.767h-4.6a.383.383,0,1,0,0,.767Z" transform="translate(-147.362 -260.608)" fill="#fff"/>
        <path id="Path_1288" data-name="Path 1288" d="M153.611,327.31a.383.383,0,1,0,.686-.343,2.039,2.039,0,0,1-.229-1.823.708.708,0,0,1,.653-.307.311.311,0,0,1,.294.124c.286.412.014,1.666-.27,2.426a.384.384,0,0,0,.63.406c.164-.163.341-.326.5-.459v.188a.384.384,0,0,0,.655.271,4.8,4.8,0,0,1,.55-.47l-.014.028a.384.384,0,0,0,.344.555h1.534a.383.383,0,1,0,0-.767h-1a.741.741,0,0,0-.069-.518.533.533,0,0,0-.467-.249,1.493,1.493,0,0,0-.77.323.443.443,0,0,0-.269-.367c-.1-.042-.234-.1-.555.095a2.654,2.654,0,0,0-.166-1.9,1.064,1.064,0,0,0-.925-.454,1.464,1.464,0,0,0-1.305.671A2.7,2.7,0,0,0,153.611,327.31Z" transform="translate(-147.051 -309.507)" fill="#fff"/>
        <path id="Path_1289" data-name="Path 1289" d="M294.634,273.254a.383.383,0,0,0-.383-.383h-3.835a.383.383,0,1,0,0,.767h3.835A.383.383,0,0,0,294.634,273.254Z" transform="translate(-277.76 -260.608)" fill="#fff"/>
      </g>
    </g>
  </g>
</svg>
