<?xml version="1.0" encoding="iso-8859-1"?>
<!-- Generator: Adobe Illustrator 19.0.0, SVG Export Plug-In . SVG Version: 6.00 Build 0)  -->
<svg version="1.1" id="Capa_1" xmlns="http://www.w3.org/2000/svg" xmlns:xlink="http://www.w3.org/1999/xlink" x="0px" y="0px"
	 viewBox="0 0 511.99 511.99" style="enable-background:new 0 0 511.99 511.99;" xml:space="preserve">
<path style="fill:#AA573A;" d="M474.501,479.094L253.155,351.84c-11.978-6.886-16.105-22.179-9.219-34.156
	c6.887-11.978,22.179-16.105,34.156-9.219L499.438,435.72c11.978,6.886,16.105,22.179,9.219,34.156
	C501.76,481.871,486.463,485.97,474.501,479.094z"/>
<path style="fill:#BA6746;" d="M401.115,466.955L345.75,332.88l-48.353-28.386c-11.914-6.995-15.903-22.323-8.908-34.238
	c6.995-11.914,22.323-15.903,34.238-8.908l55.602,32.642c4.703,2.761,8.376,6.984,10.457,12.025l58.573,141.845
	c5.273,12.77-0.804,27.397-13.574,32.67C421.065,485.782,406.41,479.776,401.115,466.955z"/>
<g>
	<path style="fill:#3C5A73;" d="M336.928,342.29l-58.837-33.826c-11.977-6.886-27.269-2.759-34.156,9.219
		c-6.886,11.977-2.759,27.27,9.219,34.156l56.93,32.73L336.928,342.29z"/>
	<path style="fill:#3C5A73;" d="M365.253,286.312l-42.525-24.965c-11.915-6.994-27.243-3.006-34.238,8.908
		c-6.994,11.915-3.006,27.243,8.908,34.238l41.576,24.407L365.253,286.312z"/>
</g>
<g>
	<circle style="fill:#BA6746;" cx="43.42" cy="200.745" r="43.42"/>
	<path style="fill:#BA6746;" d="M319.706,259.839l-159.798-71.503l48.639-47.99c0.762-0.755,1.457-1.574,2.079-2.448l55.691-78.265
		c5.857-8.231,4.57-19.815-3.377-26.052c-8.485-6.659-20.709-4.82-26.891,3.866l-55.062,77.381l-53.478,55.004
		c-5.664,5.826-10.241,12.618-13.515,20.055l-33.745,76.666c-3.308,7.515-4.15,15.884-2.406,23.907l38.516,177.182
		c2.203,10.142,12.206,16.549,22.317,14.353c10.126-2.199,16.552-12.19,14.353-22.317l-35.912-166.307l140.676,61.293
		L319.706,259.839z"/>
</g>
<path style="fill:#FA503C;" d="M319.706,259.839l-159.798-71.503l27.489-27.03l-30.487-21.713l-29.401,30.24
	c-5.664,5.826-10.241,12.618-13.515,20.055l-6.444,14.641c7.763,3.5,12.969,11.428,13.371,20.393
	c0.539,12.044-10.636,22.302-22.302,22.302c-3.257,0-6.285-0.706-9.005-1.945l-9.364,21.275c-3.308,7.515-4.15,15.884-2.406,23.907
	l12.426,57.16l38.055-2.346l-11.208-51.904l140.676,61.293L319.706,259.839z"/>
<g>
</g>
<g>
</g>
<g>
</g>
<g>
</g>
<g>
</g>
<g>
</g>
<g>
</g>
<g>
</g>
<g>
</g>
<g>
</g>
<g>
</g>
<g>
</g>
<g>
</g>
<g>
</g>
<g>
</g>
</svg>
