<?xml version="1.0" encoding="iso-8859-1"?>
<!-- Generator: Adobe Illustrator 19.0.0, SVG Export Plug-In . SVG Version: 6.00 Build 0)  -->
<svg version="1.1" id="Capa_1" xmlns="http://www.w3.org/2000/svg" xmlns:xlink="http://www.w3.org/1999/xlink" x="0px" y="0px"
	 viewBox="0 0 511.99 511.99" style="enable-background:new 0 0 511.99 511.99;" xml:space="preserve">
<path style="fill:#FFB69E;" d="M165.538,461.847H24.487C10.963,461.847,0,450.884,0,437.36c0-13.524,10.963-24.487,24.487-24.487
	h121.511l38.248-160.033c3-13.187,16.116-21.443,29.31-18.443c13.185,3.001,21.443,16.124,18.441,29.31l-42.584,179.086
	C186.878,453.939,176.968,461.847,165.538,461.847z"/>
<path style="fill:#3C5064;" d="M199.305,401.196l32.693-137.488c3.001-13.186-5.256-26.309-18.441-29.31
	c-13.194-3-26.31,5.256-29.31,18.443l-32.594,136.375L199.305,401.196z"/>
<path style="fill:#FFB69E;" d="M207.096,286.214L97.438,220.99c-9.269-5.513-13.839-16.442-11.255-26.914l30.933-125.31
	c3.241-13.129,16.514-21.145,29.641-17.905c13.129,3.241,21.146,16.512,17.905,29.642l-26.581,107.679l94.05,55.941
	c11.623,6.913,15.44,21.94,8.527,33.563C233.711,289.366,218.663,293.097,207.096,286.214z"/>
<path style="fill:#3C5A73;" d="M232.131,244.124l-88.851-52.848l-16.962,46.892c8.24,4.901,72.248,42.973,80.778,48.046
	c11.567,6.883,26.615,3.152,33.563-8.527C247.572,266.064,243.754,251.037,232.131,244.124z"/>
<path style="fill:#FA503C;" d="M214.857,233.783l-28.314,82.661c-6.375,18.612,3.545,38.868,22.157,45.243l0,0l146.851,50.3
	c15.045,5.153,31.419-2.866,36.573-17.911l21.195-61.877c5.153-15.045-2.866-31.419-17.911-36.573L214.857,233.783z"/>
<g>
	<circle style="fill:#FFB69E;" cx="463.86" cy="413.705" r="48.13"/>
	<path style="fill:#FFB69E;" d="M266.883,438.126l12.834-80.915c1.076-6.783,5.474-12.575,11.719-15.434l90.808-41.559
		c10.298-4.713,22.466-0.185,27.18,10.113c4.719,10.295,0.185,22.466-10.113,27.18l-80.81,36.984l-11.112,70.056
		c-1.774,11.186-12.279,18.815-23.465,17.04C272.752,459.819,265.107,449.32,266.883,438.126z"/>
</g>
<path style="fill:#FA735F;" d="M409.424,310.33c-4.713-10.298-16.882-14.826-27.18-10.113l-43.683,19.992l17.1,37.278l43.65-19.977
	C409.609,332.797,414.143,320.626,409.424,310.33z"/>
<g>
</g>
<g>
</g>
<g>
</g>
<g>
</g>
<g>
</g>
<g>
</g>
<g>
</g>
<g>
</g>
<g>
</g>
<g>
</g>
<g>
</g>
<g>
</g>
<g>
</g>
<g>
</g>
<g>
</g>
</svg>
