<?xml version="1.0" encoding="iso-8859-1"?>
<!-- Generator: Adobe Illustrator 19.0.0, SVG Export Plug-In . SVG Version: 6.00 Build 0)  -->
<svg version="1.1" id="Capa_1" xmlns="http://www.w3.org/2000/svg" xmlns:xlink="http://www.w3.org/1999/xlink" x="0px" y="0px"
	 viewBox="0 0 512 512" style="enable-background:new 0 0 512 512;" xml:space="preserve">
<g>
	<path style="fill:#FFB69E;" d="M223.279,511.368c-11.953-2.898-19.294-14.938-16.395-26.891l44.299-183.261
		c2.898-11.953,14.941-19.292,26.891-16.396c11.953,2.898,19.294,14.938,16.395,26.891L250.17,494.971
		C247.277,506.906,235.251,514.269,223.279,511.368z"/>
	<path style="fill:#FFB69E;" d="M324.74,511.99c-12.299,0-22.27-9.971-22.27-22.27V311.705c0-12.299,9.971-22.27,22.27-22.27
		c12.299,0,22.27,9.971,22.27,22.27v178.013C347.01,502.019,337.039,511.99,324.74,511.99z"/>
</g>
<g>
	<path style="fill:#3C5A73;" d="M277.042,383.8l17.426-72.09c2.898-11.953-4.442-23.994-16.395-26.891
		c-11.95-2.895-23.993,4.443-26.891,16.396l-17.318,71.647L277.042,383.8z"/>
	<path style="fill:#3C5A73;" d="M347.01,383.8v-72.095c0-12.299-9.971-22.27-22.27-22.27c-12.299,0-22.27,9.971-22.27,22.27V383.8
		H347.01z"/>
</g>
<g>
	<circle style="fill:#FFB69E;" cx="298.113" cy="99.688" r="38.463"/>
	<path style="fill:#FFB69E;" d="M395.473,0.097c-9.397-0.998-17.839,5.825-18.833,15.232l-8.669,81.97l-42.397,55.08h-74.263
		l-70.318,5.496L124.407,136.4c-8.849-3.359-18.735,1.092-22.091,9.937c-3.356,8.844,1.092,18.734,9.936,22.09l60.177,22.837
		c1.945,0.738,4.005,1.115,6.077,1.115c0.447,0,0.896-0.018,1.343-0.053l68.912-5.42V311.71h98.304V180.655l51.004-66.304
		c1.928-2.506,3.124-5.497,3.457-8.642l9.177-86.779C411.7,9.524,404.88,1.092,395.473,0.097z"/>
</g>
<path style="fill:#FA503C;" d="M348.705,122.328l-23.131,30.05h-9.152c0.005,0.086,0.019,0.171,0.023,0.257
	c0.441,9.857-8.705,18.252-18.252,18.252c-10.233,0-17.809-8.363-18.252-18.252c-0.004-0.086,0.006-0.171,0.004-0.257h-28.634
	l-52.953,4.138v34.352l50.404-3.965v124.806h98.304V180.655l32.699-42.507L348.705,122.328z"/>
<g>
</g>
<g>
</g>
<g>
</g>
<g>
</g>
<g>
</g>
<g>
</g>
<g>
</g>
<g>
</g>
<g>
</g>
<g>
</g>
<g>
</g>
<g>
</g>
<g>
</g>
<g>
</g>
<g>
</g>
</svg>
