<?xml version="1.0" encoding="utf-8"?>
<!-- Generator: Adobe Illustrator 24.1.0, SVG Export Plug-In . SVG Version: 6.00 Build 0)  -->
<svg version="1.1" id="Capa_1" xmlns="http://www.w3.org/2000/svg" xmlns:xlink="http://www.w3.org/1999/xlink" x="0px" y="0px"
	 viewBox="0 0 512 512" style="enable-background:new 0 0 512 512;" xml:space="preserve">
<style type="text/css">
	.st0{fill:#FFB69E;}
	.st1{fill:#6F6571;}
	.st2{fill:#19CFFC;}
	.st3{fill:#27ADE2;}
	.st4{fill:#9CA1AF;}
	.st5{fill:#5D5360;}
	.st6{fill:#C9C6CA;}
	.st7{fill:#9C969E;}
	.st8{fill:#867E88;}
	.st9{fill:#4B3F4E;}
	.st10{fill:#6EAA50;}
	.st11{fill:#3C5A73;}
	.st12{fill:#82BE50;}
</style>
<path class="st0" d="M194.6,492.7c-10.2-4.2-15.5-17.4-11.9-29.3l29.6-97.5L162.2,275c-5.8-10.7-2.5-24.8,6.6-31.6
	c9.1-6.8,21.3-3.7,27.1,7l54.6,100.3c3.2,6,4,13.3,1.9,20l-32.8,108C216.1,490.6,204.9,496.9,194.6,492.7z"/>
<g>
	<path class="st1" d="M342.9,115.9c-2.9,0-5.5,1.9-6.3,4.7l-10.2,35.8c-0.9,3,0.5,6.2,3.4,7.6l11.1,5.6c2.2,1.1,3.6,3.4,3.6,5.8v228
		h13.1V122.4c0-3.6-2.9-6.5-6.5-6.5H342.9z"/>
	<path class="st2" d="M292.2,488.5h-78.4c-39.7,0-71.9-32.2-71.9-71.9c0-39.7,32.2-71.9,71.9-71.9h78.4c39.7,0,71.9,32.2,71.9,71.9
		C364.1,456.3,331.9,488.5,292.2,488.5z"/>
	<path class="st3" d="M236.6,468.9c-34.3,0-62.1-27.8-62.1-62.1s27.8-62.1,62.1-62.1h-22.9c-39.7,0-71.9,32.2-71.9,71.9
		c0,39.7,32.2,71.9,71.9,71.9h78.4c19.1,0,36.5-7.5,49.4-19.6L236.6,468.9L236.6,468.9z"/>
	<path class="st4" d="M259.5,416.6c0,25.3-20.5,45.8-45.8,45.8c-25.3,0-45.8-20.5-45.8-45.8c0-25.3,20.5-45.8,45.8-45.8
		C239,370.8,259.5,391.3,259.5,416.6z"/>
	<path class="st1" d="M380,382.3c-2.9,0-5.5-1.9-6.3-4.8l-44.8-167.2c-1.9-7.2-6.9-13.2-13.6-16.6l-14-7
		C292,182,285,173.9,281.7,164l-21.9-65.6c-1.1-3.4,0.7-7.1,4.1-8.3c3.4-1.2,7.1,0.7,8.3,4.1l21.9,65.6c2.2,6.6,6.9,12,13.1,15.1
		l14,7c10,5,17.4,14.1,20.3,24.9l44.8,167.2c0.9,3.5-1.1,7.1-4.6,8C381.1,382.2,380.6,382.3,380,382.3z"/>
	<path class="st1" d="M389.9,392.7l-167.4,38.5c-7,1.6-14.1-2.8-15.7-9.8c-1.6-7,2.8-14.1,9.8-15.7L384,367.2
		c7-1.6,14.1,2.8,15.7,9.8C401.3,384.1,396.9,391.1,389.9,392.7z"/>
	<path class="st5" d="M399.7,377l-192.9,44.4c1.6,7,8.6,11.4,15.7,9.8l167.4-38.5C396.9,391.1,401.3,384.1,399.7,377z"/>
	<path class="st6" d="M329.7,164.1l11.1,5.6c2.2,1.1,3.6,3.4,3.6,5.8v-59.6h-1.6c-2.9,0-5.5,1.9-6.3,4.7l-10.2,35.8
		C325.5,159.5,326.9,162.7,329.7,164.1z"/>
	<path class="st6" d="M122.2,482h261.5V495H122.2V482z"/>
	<path class="st7" d="M128.7,488.5c0,7.2-5.9,13.1-13.1,13.1s-13.1-5.9-13.1-13.1c0-7.2,5.9-13.1,13.1-13.1S128.7,481.3,128.7,488.5
		z"/>
	<path class="st8" d="M122.2,495c-7.2,0-13.1-5.9-13.1-13.1c0-1.9,0.4-3.7,1.2-5.4c-4.5,2.1-7.7,6.6-7.7,11.9
		c0,7.2,5.9,13.1,13.1,13.1c5.3,0,9.9-3.2,11.9-7.7C125.9,494.6,124.1,495,122.2,495z"/>
	<path class="st7" d="M403.3,488.5c0,7.2-5.9,13.1-13.1,13.1c-7.2,0-13.1-5.9-13.1-13.1c0-7.2,5.9-13.1,13.1-13.1
		C397.4,475.4,403.3,481.3,403.3,488.5z"/>
	<path class="st8" d="M396.8,495c-7.2,0-13.1-5.9-13.1-13.1c0-1.9,0.4-3.7,1.2-5.4c-4.5,2.1-7.7,6.6-7.7,11.9
		c0,7.2,5.9,13.1,13.1,13.1c5.3,0,9.9-3.2,11.9-7.7C400.5,494.6,398.7,495,396.8,495z"/>
	<path class="st9" d="M272.2,94.2c-1.1-3.4-4.8-5.3-8.3-4.1c-3.4,1.1-5.3,4.8-4.1,8.3l19.8,59.4c1.1,3.4,4.8,5.3,8.3,4.1
		c3.4-1.1,5.3-4.8,4.1-8.3L272.2,94.2z"/>
</g>
<g>
	<path class="st0" d="M301,108.1l-48.9-18.7c-15.1-5.8-32.1,1.8-37.9,17l-53.7,140.7c0,0-3.5,8.2-0.2,17.4l49.1,1.3l54.9,21L318,146
		C323.8,130.8,316.2,113.9,301,108.1z"/>
	<path class="st0" d="M237.6,468.4c-11.9-4.2-18.2-17.4-13.9-29.3l34.6-97.5l-58.5-90.9c-6.8-10.7-3-24.8,7.7-31.6
		c10.7-6.8,24.9-3.7,31.7,7l63.9,100.3c3.8,6,4.6,13.3,2.3,20l-38.4,108C262.6,466.3,249.6,472.6,237.6,468.4z"/>
</g>
<g>
	<path class="st0" d="M202.3,222.7c-7,0-13.8-3.8-17.4-10.4l-44.9-84c-3-5.7-3.1-12.5-0.2-18.2c2.9-5.7,8.4-9.7,14.8-10.6l83.6-11.9
		c10.8-1.5,20.7,6,22.3,16.7c1.5,10.8-6,20.7-16.7,22.3l-55.7,7.9l31.7,59.2c5.1,9.6,1.5,21.5-8.1,26.6
		C208.7,222,205.5,222.7,202.3,222.7z"/>
	<path class="st10" d="M260.5,104.4c-1.5-10.8-11.5-18.3-22.3-16.7l-41.9,6l7.8,38.7l39.7-5.6C254.5,125.1,262,115.1,260.5,104.4z"
		/>
	<path class="st11" d="M301,108.1l-48.9-18.7c-15.1-5.8-32.1,1.8-37.9,17l-53.7,140.7c-0.5,1.6-1,3.4-1.4,5.2
		c-2.1,11,0.4,20.5,2.7,26.7c4.4,9.1,8.8,18.2,13.1,27.3c18.5,2.5,37,5,55.4,7.5c-3.9-10-7.7-19.9-11.6-29.9
		c11.3,16.3,22.6,32.6,33.8,49l41.1-20.8c-7.8-14.8-15.6-29.7-23.4-44.5c15.8-40.6,31.7-81.1,47.5-121.7
		C323.8,130.8,316.2,113.9,301,108.1z"/>
	<path class="st12" d="M160.5,247.1l53.7-140.7c5.8-15.1,22.8-22.7,37.9-17l48.9,18.7c15.1,5.8,22.7,22.8,17,37.9l-48.7,127.6
		L160.5,247.1z"/>
	<g>
		<circle class="st0" cx="304.7" cy="46.2" r="43.5"/>
		<path class="st0" d="M350.2,252.3L274,232.8c-6.4-1.6-11.5-6.4-13.7-12.6l-31.5-90.6c-3.6-10.3,1.9-21.5,12.1-25.1
			c10.3-3.6,21.5,1.9,25.1,12.1l28.1,80.6l66,17c10.5,2.7,16.9,13.4,14.2,24C371.5,248.7,360.8,255,350.2,252.3z"/>
	</g>
	<path class="st10" d="M243.4,171.4l36.7-14.5l-14-40.3c-3.6-10.3-14.8-15.7-25.1-12.1c-10.3,3.6-15.7,14.8-12.1,25.1L243.4,171.4z"
		/>
</g>
</svg>
