<svg xmlns="http://www.w3.org/2000/svg" width="25.583" height="26.537" viewBox="0 0 25.583 26.537">
  <g id="gym" transform="translate(0 0)">
    <path id="Path_1365" data-name="Path 1365" d="M330.012,40.991a.441.441,0,0,0,.624,0l3.073-3.073a2.258,2.258,0,0,0-3.194-3.194l-.191.191-.191-.191a2.258,2.258,0,1,0-3.194,3.194Zm-2.449-5.643a1.378,1.378,0,0,1,1.946,0l.5.5a.441.441,0,0,0,.624,0l.5-.5a1.376,1.376,0,0,1,1.946,1.946l-2.761,2.761-2.761-2.761a1.376,1.376,0,0,1,0-1.946Zm0,0" transform="translate(-309.367 -32.298)" fill="#707070"/>
    <path id="Path_1366" data-name="Path 1366" d="M25.093,25.586a12.38,12.38,0,0,1-6.79-1.268.44.44,0,0,0-.334-.043c-.048.013-4.79,1.284-8.61.436C6.977,24.182,4.731,22.5,3.091,21.28c-.22-.164-.429-.32-.625-.464a5.011,5.011,0,0,0-1.068-.5c-.168-.064-.4-.153-.449-.184a.173.173,0,0,1-.066-.139V18.968C.9,18.159,4.3,5.71,4.821,4.127a.341.341,0,0,1,.1-.073L11.635.988l2.17,2.825a.389.389,0,0,1-.024.486L11.637,6.7a.382.382,0,0,1-.523.052l-.867-.8a.444.444,0,0,0-.382-.1.463.463,0,0,0-.32.244,2.406,2.406,0,0,1-1.4.323L7.928,6.4a.436.436,0,0,0-.43.225.441.441,0,0,0,.036.484c.186.241.331.434.414.545l.429,7.3a3.211,3.211,0,0,1-.57,1.389.441.441,0,0,0,.133.862c.5,0,.925-.657,1.267-1.941a5.4,5.4,0,0,1,6.81.056A3.487,3.487,0,0,1,17.2,17.212a.441.441,0,0,0,.882-.01,3.686,3.686,0,0,0-1.179-2.229,5.627,5.627,0,0,1,3.653-2.252,6.4,6.4,0,0,1,4.3,1.294.441.441,0,0,0,.558-.683,7.2,7.2,0,0,0-4.961-1.488,6.446,6.446,0,0,0-4.222,2.543,6.27,6.27,0,0,0-7.022-.2l-.395-6.71a.438.438,0,0,0-.064-.2,2.9,2.9,0,0,0,1.206-.374l.568.524a1.265,1.265,0,0,0,1.764-.127l2.144-2.4a1.279,1.279,0,0,0,.072-1.6L12.12.172A.441.441,0,0,0,11.587.04L4.561,3.249a1.073,1.073,0,0,0-.569.581C3.742,4.58,0,17.927,0,18.967v1.024a1.053,1.053,0,0,0,.4.834,2.8,2.8,0,0,0,.678.313,4.783,4.783,0,0,1,.863.39c.194.142.4.3.618.459,1.7,1.273,4.038,3.015,6.6,3.586a21.575,21.575,0,0,0,8.861-.4,13.219,13.219,0,0,0,5.814,1.365,12.139,12.139,0,0,0,1.348-.074.441.441,0,1,0-.1-.877Zm0,0" transform="translate(0 0)" fill="#707070"/>
    <path id="Path_1367" data-name="Path 1367" d="M426.391,383.357a.441.441,0,0,0-.88.049c0,.295.218,1.292,3.015,1.758a.441.441,0,1,0,.145-.87C426.716,383.968,426.418,383.416,426.391,383.357Zm0,0" transform="translate(-403.458 -363.116)" fill="#707070"/>
    <path id="Path_1368" data-name="Path 1368" d="M111.292,377.554c-5.777,1.237-8.249-2.715-8.352-2.884a.441.441,0,0,0-.756.455,7.571,7.571,0,0,0,2.232,2.182,8.556,8.556,0,0,0,4.744,1.365,11.044,11.044,0,0,0,2.316-.255.441.441,0,0,0-.185-.863Zm0,0" transform="translate(-96.829 -355.049)" fill="#707070"/>
  </g>
</svg>
