<?xml version="1.0" encoding="iso-8859-1"?>
<!-- Generator: Adobe Illustrator 19.0.0, SVG Export Plug-In . SVG Version: 6.00 Build 0)  -->
<svg version="1.1" id="Capa_1" xmlns="http://www.w3.org/2000/svg" xmlns:xlink="http://www.w3.org/1999/xlink" x="0px" y="0px"
	 viewBox="0 0 511.987 511.987" style="enable-background:new 0 0 511.987 511.987;" xml:space="preserve">
<path style="fill:#FFB69E;" d="M290.233,510.546c-14.649-4.881-22.568-20.714-17.687-35.363l41.632-124.947l-115.552-17.83
	c-15.261-2.355-25.723-16.635-23.368-31.895s16.629-25.726,31.895-23.368l148.283,22.88c17.082,2.636,27.738,20.031,22.26,36.469
	l-52.101,156.366C320.716,507.506,304.883,515.427,290.233,510.546z"/>
<path style="fill:#F2A88F;" d="M290.233,510.546c-14.649-4.881-22.568-20.714-17.687-35.363l41.632-124.947l-115.552-17.83
	c-15.261-2.355-25.723-16.635-23.368-31.895s16.629-25.726,31.895-23.368l148.283,22.88c17.082,2.636,27.738,20.031,22.26,36.469
	l-52.101,156.366C320.716,507.506,304.883,515.427,290.233,510.546z"/>
<path style="fill:#3C5064;" d="M198.625,332.406l115.552,17.83l25.408-52.658l-132.433-20.434
	c-15.266-2.358-29.54,8.108-31.895,23.368S183.365,330.052,198.625,332.406z"/>
<path style="fill:#FFB69E;" d="M271.459,103.522l-111.602,3.302c-11.447,0.339-20.882,9.073-22.111,20.46
	c-2.29,21.206-6.067,64.517-8.88,98.237c-1.111,13.323,9.404,24.743,22.773,24.743l0,0c11.799,0,21.658-8.983,22.752-20.73
	l6.645-71.295l92.064-7.406c13.064-0.453,23.296-11.412,22.834-24.476C295.481,113.292,284.523,103.069,271.459,103.522z"/>
<path style="fill:#FA870A;" d="M295.934,126.357c-0.454-13.065-11.411-23.288-24.476-22.834l-60.422,1.788v50.515l62.063-4.992
	C286.164,150.379,296.396,139.421,295.934,126.357z"/>
<path style="fill:#FFB69E;" d="M187.18,507.046c-12.716-8.759-15.924-26.168-7.165-38.885l68.303-99.163l-68.579-44.643
	c-12.941-8.424-16.602-25.744-8.178-38.685c8.424-12.94,25.743-16.603,38.684-8.178l92.631,60.3
	c13.19,8.587,16.68,26.359,7.772,39.291l-84.583,122.798C217.306,512.595,199.898,515.805,187.18,507.046z"/>
<path style="fill:#3C5A73;" d="M179.739,324.355l63.257,41.179l42.734-38.903l-75.485-49.139
	c-12.941-8.424-30.26-4.761-38.684,8.178C163.136,298.611,166.798,315.93,179.739,324.355z"/>
<path style="fill:#FFA50A;" d="M168.38,292.328l71.188,27.375c23.99,8.217,50.1-4.569,58.317-28.559l0,0l46.523-135.824
	c5.117-14.938-2.845-31.195-17.783-36.312l-61.436-21.043c-14.938-5.117-31.195,2.845-36.312,17.783L168.38,292.328z"/>
<g>
	<circle style="fill:#FFB69E;" cx="335.419" cy="47.783" r="47.783"/>
	<path style="fill:#FFB69E;" d="M186.156,305.585l-10.745-93.951c-0.901-7.876,2.2-15.677,8.261-20.787l88.135-74.293
		c9.995-8.425,24.927-7.152,33.353,2.843c8.431,9.99,7.152,24.927-2.843,33.353l-78.432,66.114l9.303,81.343
		c1.485,12.988-7.838,24.72-20.826,26.205C199.39,327.895,187.641,318.583,186.156,305.585z"/>
</g>
<path style="fill:#FA870A;" d="M302.317,152.748c9.995-8.425,11.274-23.363,2.843-33.353c-8.425-9.995-23.358-11.268-33.353-2.843
	L231.32,150.68l32.047,34.899L302.317,152.748z"/>
<g>
</g>
<g>
</g>
<g>
</g>
<g>
</g>
<g>
</g>
<g>
</g>
<g>
</g>
<g>
</g>
<g>
</g>
<g>
</g>
<g>
</g>
<g>
</g>
<g>
</g>
<g>
</g>
<g>
</g>
</svg>
