<?xml version="1.0" encoding="iso-8859-1"?>
<!-- Generator: Adobe Illustrator 19.0.0, SVG Export Plug-In . SVG Version: 6.00 Build 0)  -->
<svg version="1.1" id="Capa_1" xmlns="http://www.w3.org/2000/svg" xmlns:xlink="http://www.w3.org/1999/xlink" x="0px" y="0px"
	 viewBox="0 0 512.001 512.001" style="enable-background:new 0 0 512.001 512.001;" xml:space="preserve">
<path style="fill:#FFB69E;" d="M392.109,156.171c-5.591-6.981-15.858-8.02-23.095-2.763l-45.811,33.279l-30.226-23.972
	c-7.118-5.645-15.235-9.9-23.928-12.541l-79.494-24.152l-38.062-40.159l18.965-64.078c2.538-8.577-1.866-17.908-10.313-20.849
	c-9.018-3.141-18.731,1.914-21.411,10.968l-21.819,73.72c-1.683,5.686-0.207,11.837,3.872,16.141l56.749,59.877l-39.129,132.207
	l-0.318,195.94c-0.034,12.233,9.855,22.176,22.087,22.211c0.022,0,0.041,0,0.063,0c12.203,0,22.113-9.876,22.147-22.087
	l0.51-182.897l11.374,3.366l33.182,84.76l-10.938,92.097c-1.442,12.147,7.236,23.164,19.382,24.606
	c12.127,1.441,23.161-7.218,24.606-19.383l11.592-97.612c0.43-3.621-0.041-7.291-1.37-10.686l-32.229-82.325l33.541-113.326
	l40.401,32.041c5.838,4.631,14.051,4.808,20.085,0.425l56.395-40.967C396.557,174.464,398.079,163.625,392.109,156.171z"/>
<polygon style="fill:#3C5A73;" points="261.497,360.584 238.498,301.839 142.114,281.325 138.408,293.847 138.267,380.911 
	182.692,380.911 182.898,307.014 194.272,310.381 220.106,376.371 "/>
<path style="fill:#FFA50A;" d="M292.976,162.715c-7.118-5.645-15.235-9.9-23.928-12.541l-16.271-4.943
	c-2.365,7.313-9.825,12.799-17.554,12.799c-10.267,0-17.871-8.392-18.315-18.315c-0.08-1.79,0.163-3.529,0.659-5.181l-28.013-8.511
	l-20.263-21.38l-25.259,21.645l33.506,35.353l-39.129,132.207l100.091,7.992l33.541-113.326l24.281,19.258l15.828-29.851
	L292.976,162.715z"/>
<circle style="fill:#FFB69E;" cx="250.341" cy="88.742" r="38.441"/>
<g>
</g>
<g>
</g>
<g>
</g>
<g>
</g>
<g>
</g>
<g>
</g>
<g>
</g>
<g>
</g>
<g>
</g>
<g>
</g>
<g>
</g>
<g>
</g>
<g>
</g>
<g>
</g>
<g>
</g>
</svg>
