<svg id="like-yelllow" xmlns="http://www.w3.org/2000/svg" width="25.536" height="23.938" viewBox="0 0 25.536 23.938">
  <path id="Path_1593" data-name="Path 1593" d="M4.523,170.7H1.86A1.86,1.86,0,0,0,0,172.56v12.234a1.86,1.86,0,0,0,1.86,1.86H4.518a1.86,1.86,0,0,0,1.86-1.86V172.56A1.853,1.853,0,0,0,4.523,170.7Z" transform="translate(0 -162.99)" fill="#ffc107"/>
  <path id="Path_1594" data-name="Path 1594" d="M173.3,24.608h-5.022a10.27,10.27,0,0,0,.8-4.254c0-3.192-2.394-4.254-3.456-4.254s-1.6.534-1.6,3.192c0,2.528-2.449,4.563-4.025,5.611V38.083a24.819,24.819,0,0,0,10.408,1.955h1.7a4.255,4.255,0,0,0,4.194-3.531L177.5,29.59a4.256,4.256,0,0,0-4.194-4.982Z" transform="translate(-152.021 -16.1)" fill="#ffc107"/>
</svg>
