<svg xmlns="http://www.w3.org/2000/svg" width="67.817" height="42.273" viewBox="0 0 67.817 42.273">
  <g id="Path_1296" data-name="Path 1296" transform="matrix(1, -0.017, 0.017, 1, 0, 1.171)" fill="none">
    <path d="M33.555,0C52.086,0,67.109,13.014,67.109,29.068S0,45.121,0,29.068,15.023,0,33.555,0Z" stroke="none"/>
    <path d="M 33.55471038818359 7.999992370605469 C 19.80265045166016 7.999992370605469 8.552898406982422 17.00140953063965 8.019783020019531 28.23309326171875 C 10.23762130737305 30.10897636413574 19.10609436035156 33.10805892944336 33.55469512939453 33.10805892944336 C 48.0033073425293 33.10805892944336 56.87179565429688 30.10897636413574 59.08963775634766 28.23309326171875 C 58.55652236938477 17.00140953063965 47.30677032470703 7.999992370605469 33.55471038818359 7.999992370605469 M 33.55471038818359 -7.62939453125e-06 C 52.08646011352539 -7.62939453125e-06 67.10942840576172 13.01409149169922 67.10942840576172 29.06779289245605 C 67.10942840576172 37.09463500976563 50.33205413818359 41.10806274414063 33.5546989440918 41.10806274414063 C 16.77733993530273 41.10806274414063 -7.62939453125e-06 37.09464263916016 -7.62939453125e-06 29.06779289245605 C -7.62939453125e-06 13.01409149169922 15.0229606628418 -7.62939453125e-06 33.55471038818359 -7.62939453125e-06 Z" stroke="none" fill="#fff"/>
  </g>
</svg>
