<?xml version="1.0" encoding="iso-8859-1"?>
<!-- Generator: Adobe Illustrator 19.0.0, SVG Export Plug-In . SVG Version: 6.00 Build 0)  -->
<svg version="1.1" id="Capa_1" xmlns="http://www.w3.org/2000/svg" xmlns:xlink="http://www.w3.org/1999/xlink" x="0px" y="0px"
	 viewBox="0 0 512 512" style="enable-background:new 0 0 512 512;" xml:space="preserve">
<path style="fill:#BA6746;" d="M21.061,373.944c-14.802-3.607-23.878-18.531-20.27-33.334l44.424-182.295
	c1.962-8.051,7.44-14.795,14.919-18.364c7.478-3.57,16.165-3.589,23.66-0.05l137.972,65.138
	c13.777,6.504,19.674,22.946,13.169,36.723c-6.505,13.778-22.947,19.673-36.723,13.169L90.813,204.228L54.395,353.674
	C50.778,368.517,35.823,377.542,21.061,373.944z"/>
<path style="fill:#3C5A73;" d="M379.607,272.962l-200.714-88.356l-0.064,0.162l-57.833-27.304L99.441,208.3l59.156,27.928
	l-6.765,17.208c-5.803,19.397,6.408,34.725,22.398,42.36c16.251,7.759,138.995,66.367,159.177,76.003
	c13.48,6.436,29.639,0.712,36.06-12.776l23.658-49.698C399.671,295.577,393.564,279.106,379.607,272.962z"/>
<path style="fill:#82BE50;" d="M379.607,272.962l-183.491-80.774l-21.886,103.61c16.251,7.759,138.995,66.367,159.177,76.003
	c13.48,6.437,29.639,0.712,36.06-12.776l23.658-49.698C399.671,295.577,393.564,279.106,379.607,272.962z"/>
<path style="fill:#BA6746;" d="M333.553,291.709l-61.51,44.21h-67.059c-10.743,0.095-19.31,9.478-19.216,20.147
	c0.093,10.574,8.68,18.65,19.383,18.65c0.058,0,61.159,0.029,64.475,0c6.627-0.058,18.552,0.566,29.223-8.914l58.056-41.525
	c8.975-6.42,11.071-18.887,4.688-27.888l0,0C355.162,287.321,342.58,285.221,333.553,291.709z"/>
<path style="fill:#6EAA50;" d="M361.592,296.389c-6.43-9.068-19.013-11.168-28.039-4.68l-31.146,22.386l23.875,32.085l30.623-21.903
	C365.88,317.858,367.976,305.39,361.592,296.389z"/>
<circle style="fill:#BA6746;" cx="460.88" cy="323.62" r="51.12"/>
<g>
</g>
<g>
</g>
<g>
</g>
<g>
</g>
<g>
</g>
<g>
</g>
<g>
</g>
<g>
</g>
<g>
</g>
<g>
</g>
<g>
</g>
<g>
</g>
<g>
</g>
<g>
</g>
<g>
</g>
</svg>
