<svg id="_33" data-name="33" xmlns="http://www.w3.org/2000/svg" width="32.185" height="29.882" viewBox="0 0 32.185 29.882">
  <path id="Path_1555" data-name="Path 1555" d="M20.539,4.3H2.149a1.149,1.149,0,1,1,0-2.3H20.539a1.149,1.149,0,0,1,0,2.3Z" transform="translate(-1 -2)" fill="#909090"/>
  <path id="Path_1556" data-name="Path 1556" d="M16.941,8.3H3.149a1.149,1.149,0,0,1,0-2.3H16.941a1.149,1.149,0,0,1,0,2.3Z" transform="translate(0.299 3.195)" fill="#909090"/>
  <path id="Path_1557" data-name="Path 1557" d="M13.344,12.3H4.149a1.149,1.149,0,1,1,0-2.3h9.195a1.149,1.149,0,0,1,0,2.3Z" transform="translate(1.597 8.389)" fill="#909090"/>
  <path id="Path_1558" data-name="Path 1558" d="M9.747,16.3h-4.6a1.149,1.149,0,0,1,0-2.3h4.6a1.149,1.149,0,1,1,0,2.3Z" transform="translate(2.896 13.584)" fill="#909090"/>
  <path id="Path_1559" data-name="Path 1559" d="M21.142,25.331a1.1,1.1,0,0,0-1.609,0l-2.643,2.62V3.149a1.149,1.149,0,1,0-2.3,0v24.8l-2.643-2.62a1.138,1.138,0,0,0-1.609,1.609l4.6,4.6a1.126,1.126,0,0,0,1.609,0l4.6-4.6a1.1,1.1,0,0,0,0-1.609Z" transform="translate(10.694 -2)" fill="#909090"/>
</svg>
