<svg xmlns="http://www.w3.org/2000/svg" width="94.5" height="108.435" viewBox="0 0 94.5 108.435">
  <g id="Group_679" data-name="Group 679" transform="translate(-908 -250.237)">
    <g id="commerce-and-shopping" transform="translate(908 250.237)">
      <path id="Path_1334" data-name="Path 1334" d="M96.466,88.091H37.342a14.291,14.291,0,0,1-13.976-11.36l58.263-6.868a12.192,12.192,0,0,0,10.6-9.777l6.541-32.6a2.613,2.613,0,0,0-.5-2.1,2.579,2.579,0,0,0-1.928-1l-16.575-.74a22.808,22.808,0,0,0-45.509-2.065L22.385,21.05a27.542,27.542,0,0,0-6.2-12.272L8.994,1.29A2.581,2.581,0,0,0,5.276,4.87l7.109,7.4a22.3,22.3,0,0,1,5.525,14.7V73.822c0,.172.017.344.017.516a3.456,3.456,0,0,0,.017.43.063.063,0,0,0,.017.052A19.448,19.448,0,0,0,32.2,92.549a9.947,9.947,0,1,0,15.7.706H70.407a9.957,9.957,0,1,0,16.266,0h9.794a2.582,2.582,0,0,0,0-5.164ZM56.964,6.144A17.669,17.669,0,0,1,74.607,23.408v.379a17.428,17.428,0,0,1-.654,4.768l-.1.361A17.694,17.694,0,0,1,59.426,41.257a16.74,16.74,0,0,1-2.461.172,17.524,17.524,0,0,1-2.7-.207A17.724,17.724,0,0,1,39.838,28.038c-.086-.344-.155-.688-.224-1.033a18.054,18.054,0,0,1-.293-3.219,18.732,18.732,0,0,1,.1-1.962A17.681,17.681,0,0,1,56.964,6.144ZM23.073,71.567v-44.6c0-.241-.034-.482-.034-.723l11.326.516a16.446,16.446,0,0,0,.31,1.842,22.8,22.8,0,0,0,44.339,1c.069-.275.138-.534.189-.809l13.907.62L87.172,59.071a7.074,7.074,0,0,1-6.145,5.663Zm16.7,32.2a4.794,4.794,0,1,1,4.785-4.785A4.8,4.8,0,0,1,39.769,103.772Zm38.762,0a4.794,4.794,0,1,1,4.8-4.785A4.8,4.8,0,0,1,78.531,103.772Z" transform="translate(-4.548 -0.5)" fill="#fff"/>
    </g>
    <path id="heart" d="M11.912,5.9A6.268,6.268,0,0,1,17.659,2c3.462,0,5.956,2.962,6.269,6.492a6.46,6.46,0,0,1-.2,2.454,10.849,10.849,0,0,1-3.307,5.514l-8.507,7.59L3.548,16.46A10.847,10.847,0,0,1,.242,10.946a6.46,6.46,0,0,1-.2-2.454C.352,4.962,2.845,2,6.308,2A6.074,6.074,0,0,1,11.912,5.9Z" transform="translate(948.033 261.209)" fill="#fff"/>
  </g>
</svg>
