<svg id="surface1" xmlns="http://www.w3.org/2000/svg" width="95.813" height="95.813" viewBox="0 0 95.813 95.813">
  <path id="Path_1405" data-name="Path 1405" d="M79.844,16.917V7.984A7.994,7.994,0,0,0,71.859,0H7.984A7.994,7.994,0,0,0,0,7.984V43.116a7.969,7.969,0,0,0,7.16,7.9l6,15.582a7.986,7.986,0,0,0,10.321,4.58L60.969,56.74a23.084,23.084,0,0,0,1.989,20.5l.917,1.467V94.216a1.6,1.6,0,0,0,1.6,1.6H94.216a1.6,1.6,0,0,0,1.6-1.6V41.5a20.9,20.9,0,0,0-6.118-14.719Zm0,9.55L84.69,39.048a4.79,4.79,0,0,1-2.75,6.191l-2.77,1.07a7.987,7.987,0,0,0,.674-3.194ZM3.194,43.116V7.984A4.791,4.791,0,0,1,7.984,3.194H71.859A4.791,4.791,0,0,1,76.65,7.984v10.15h-.014l.014.036V43.116a4.847,4.847,0,0,1-.109.827L61.914,29.314A8.519,8.519,0,0,0,49.618,41.1l6.236,6.811H7.984A4.791,4.791,0,0,1,3.194,43.116ZM23.651,51.1,12.3,55.472,10.616,51.1ZM22.335,68.2a4.79,4.79,0,0,1-6.193-2.748l-2.694-7.005L32.511,51.1v-.01h26.27l2.076,2.263Zm70.283,24.42H67.069V79.844h25.55Zm0-15.969H66.358l-.693-1.107a19.913,19.913,0,0,1-.4-20.451,1.6,1.6,0,0,0-.209-1.872L51.966,38.945a5.326,5.326,0,0,1,7.69-7.366L85.1,57.02l2.258-2.258-5.908-5.908,1.638-.639A7.985,7.985,0,0,0,87.668,37.9L82.263,23.863l5.173,5.184A17.684,17.684,0,0,1,92.619,41.5Zm0,0" fill="#707070"/>
  <path id="Path_1406" data-name="Path 1406" d="M74.317,78.469a4.152,4.152,0,0,0,4.152-4.152V66.652A4.152,4.152,0,0,0,74.317,62.5H66.652A4.152,4.152,0,0,0,62.5,66.652v7.665a4.152,4.152,0,0,0,4.152,4.152Zm-8.623-4.152V72.081h3.194V68.887H65.694V66.652a.958.958,0,0,1,.958-.958h7.665a.958.958,0,0,1,.958.958v2.236H72.081v3.194h3.194v2.236a.958.958,0,0,1-.958.958H66.652A.958.958,0,0,1,65.694,74.317Zm0,0" transform="translate(-56.112 -56.112)" fill="#707070"/>
  <path id="Path_1407" data-name="Path 1407" d="M78.125,265.625h6.387v3.194H78.125Zm0,0" transform="translate(-70.141 -238.478)" fill="#707070"/>
  <path id="Path_1408" data-name="Path 1408" d="M78.125,359.375h6.387v3.194H78.125Zm0,0" transform="translate(-70.141 -322.647)" fill="#707070"/>
  <path id="Path_1409" data-name="Path 1409" d="M359.375,359.375h6.388v3.194h-6.388Zm0,0" transform="translate(-322.647 -322.647)" fill="#707070"/>
  <path id="Path_1410" data-name="Path 1410" d="M171.875,265.625h6.387v3.194h-6.387Zm0,0" transform="translate(-154.309 -238.478)" fill="#707070"/>
  <path id="Path_1411" data-name="Path 1411" d="M265.625,265.625h6.387v3.194h-6.387Zm0,0" transform="translate(-238.478 -238.478)" fill="#707070"/>
  <path id="Path_1412" data-name="Path 1412" d="M359.375,265.625h6.388v3.194h-6.388Zm0,0" transform="translate(-322.647 -238.478)" fill="#707070"/>
  <path id="Path_1413" data-name="Path 1413" d="M656.25,78.125h3.194v4.791H656.25Zm0,0" transform="translate(-589.181 -70.141)" fill="#707070"/>
  <path id="Path_1414" data-name="Path 1414" d="M593.75,78.125h3.194v4.791H593.75Zm0,0" transform="translate(-533.069 -70.141)" fill="#707070"/>
  <path id="Path_1415" data-name="Path 1415" d="M531.25,78.125h3.194v4.791H531.25Zm0,0" transform="translate(-476.956 -70.141)" fill="#707070"/>
  <path id="Path_1416" data-name="Path 1416" d="M468.75,78.125h3.194v4.791H468.75Zm0,0" transform="translate(-420.844 -70.141)" fill="#707070"/>
  <path id="Path_1417" data-name="Path 1417" d="M687.5,812.5h3.194v3.194H687.5Zm0,0" transform="translate(-617.237 -729.462)" fill="#707070"/>
</svg>
