<svg xmlns="http://www.w3.org/2000/svg" width="62.785" height="29.975" viewBox="0 0 62.785 29.975">
  <g id="television" transform="translate(0 -145.969)">
    <path id="Path_1394" data-name="Path 1394" d="M441.6,155.757a1.022,1.022,0,1,0-.929,1.82,13.175,13.175,0,0,1,0,23.475,1.022,1.022,0,1,0,.929,1.82,15.218,15.218,0,0,0,0-27.115Z" transform="translate(-387.122 -8.358)" fill="#fff"/>
    <path id="Path_1395" data-name="Path 1395" d="M439.372,228.783a5.571,5.571,0,0,0,0-9.925,1.022,1.022,0,1,0-.929,1.82,3.527,3.527,0,0,1,0,6.285,1.022,1.022,0,1,0,.929,1.82Z" transform="translate(-385.196 -62.864)" fill="#fff"/>
    <path id="Path_1396" data-name="Path 1396" d="M9.234,181.052a13.175,13.175,0,0,1,0-23.476,1.022,1.022,0,1,0-.929-1.82,15.218,15.218,0,0,0,0,27.115,1.022,1.022,0,1,0,.929-1.82Z" transform="translate(0 -8.357)" fill="#fff"/>
    <path id="Path_1397" data-name="Path 1397" d="M44.856,220.678a1.022,1.022,0,0,0-.929-1.82,5.571,5.571,0,0,0,0,9.925,1.022,1.022,0,0,0,.929-1.82,3.527,3.527,0,0,1,0-6.285Z" transform="translate(-35.319 -62.865)" fill="#fff"/>
    <path id="Path_1398" data-name="Path 1398" d="M141.42,145.969H115.1c-1.631,0-2.957,1.613-2.957,3.6v22.784c0,1.983,1.327,3.6,2.957,3.6h20.3a1.041,1.041,0,0,0,0-2.043H115.1a1.437,1.437,0,0,1-1.277-1.552V149.564a1.437,1.437,0,0,1,1.277-1.552H141.42a1.437,1.437,0,0,1,1.277,1.552v22.784a1.437,1.437,0,0,1-1.277,1.552h-2.657a1.041,1.041,0,0,0,0,2.043h2.657c1.631,0,2.957-1.613,2.957-3.6V149.564C144.377,147.582,143.051,145.969,141.42,145.969Z" transform="translate(-96.867)" fill="#fff"/>
    <path id="Path_1399" data-name="Path 1399" d="M205.849,205.573a1.021,1.021,0,0,0-1.022,1.022v3.089a2.033,2.033,0,0,0,3.121,1.717l9.875-6.257a2.033,2.033,0,0,0,0-3.434l-9.875-6.257a2.033,2.033,0,0,0-3.121,1.717v5.341a1.022,1.022,0,1,0,2.043,0v-5.322l9.845,6.239-9.845,6.238v-3.07a1.021,1.021,0,0,0-1.022-1.022Z" transform="translate(-180.405 -42.47)" fill="#fff"/>
  </g>
</svg>
