<svg xmlns="http://www.w3.org/2000/svg" width="53.695" height="48.251" viewBox="0 0 53.695 48.251">
  <g id="user" transform="translate(0 -25.753)">
    <g id="Group_742" data-name="Group 742" transform="translate(8.013 25.753)">
      <g id="Group_741" data-name="Group 741" transform="translate(0 0)">
        <path id="Path_1400" data-name="Path 1400" d="M86.145,25.753A10.337,10.337,0,1,0,96.482,36.09,10.353,10.353,0,0,0,86.145,25.753Zm0,18.941a8.614,8.614,0,1,1,8.614-8.614A8.623,8.623,0,0,1,86.145,44.694Z" transform="translate(-75.808 -25.753)" fill="#fff"/>
      </g>
    </g>
    <g id="Group_744" data-name="Group 744" transform="translate(31.763 30.044)">
      <g id="Group_743" data-name="Group 743" transform="translate(0 0)">
        <path id="Path_1401" data-name="Path 1401" d="M308.266,66.353a7.758,7.758,0,1,0,7.758,7.758A7.763,7.763,0,0,0,308.266,66.353Zm0,13.8a6.035,6.035,0,1,1,6.035-6.035A6.04,6.04,0,0,1,308.266,80.157Z" transform="translate(-300.508 -66.353)" fill="#fff"/>
      </g>
    </g>
    <g id="Group_746" data-name="Group 746" transform="translate(0 46.036)">
      <g id="Group_745" data-name="Group 745" transform="translate(0)">
        <path id="Path_1402" data-name="Path 1402" d="M53.4,228.55a13.881,13.881,0,0,0-8.7-10.77,9.1,9.1,0,0,1-10.358,0,14.275,14.275,0,0,0-4.355,2.769,21.518,21.518,0,0,0-4.83-2.9,12.015,12.015,0,0,1-6.817,2.082,11.677,11.677,0,0,1-6.8-2.082,18.279,18.279,0,0,0-11.1,13.836s-2.072,5.665,2.727,14.132H33.538s2.156-3.752,2.537-6.035h15.1A14.477,14.477,0,0,0,53.4,228.55ZM32.471,243.9H4.239C.55,236.89,2.146,231.774,2.146,231.774a16.374,16.374,0,0,1,9.27-12.176,13.855,13.855,0,0,0,13.878,0,16.374,16.374,0,0,1,9.27,12.176A17.39,17.39,0,0,1,32.471,243.9Zm17.7-6.035H36.424a19.571,19.571,0,0,0-.169-6.374,18.059,18.059,0,0,0-5-9.777,12.354,12.354,0,0,1,2.949-1.987,10.807,10.807,0,0,0,10.623,0,13.015,13.015,0,0,1,5.348,18.138Z" transform="translate(0 -217.653)" fill="#fff"/>
      </g>
    </g>
  </g>
</svg>
