<svg id="calendar" xmlns="http://www.w3.org/2000/svg" width="40.039" height="39" viewBox="0 0 40.039 39">
  <path id="Path_1393" data-name="Path 1393" d="M34.877,3.047h-3.6V1.219a1.252,1.252,0,0,0-2.5,0V3.047H11.261V1.219a1.252,1.252,0,0,0-2.5,0V3.047h-3.6A5.1,5.1,0,0,0,0,8.074v25.9A5.1,5.1,0,0,0,5.161,39H34.877a5.1,5.1,0,0,0,5.161-5.027V8.074A5.1,5.1,0,0,0,34.877,3.047ZM5.161,5.484h3.6V6.7a1.252,1.252,0,0,0,2.5,0V5.484H28.778V6.7a1.252,1.252,0,0,0,2.5,0V5.484h3.6a2.628,2.628,0,0,1,2.659,2.59v2.895H2.5V8.074A2.628,2.628,0,0,1,5.161,5.484ZM34.877,36.563H5.161A2.628,2.628,0,0,1,2.5,33.973V13.406H37.536V33.973A2.628,2.628,0,0,1,34.877,36.563Z" fill="#fff"/>
</svg>
