<svg id="calendar_3_" data-name="calendar (3)" xmlns="http://www.w3.org/2000/svg" width="40.102" height="39.935" viewBox="0 0 40.102 39.935">
  <g id="Group_791" data-name="Group 791" transform="translate(23.528 24.598)">
    <g id="Group_790" data-name="Group 790">
      <path id="Path_1560" data-name="Path 1560" d="M311.709,315.649a1.8,1.8,0,0,0-2.545,0l-4.228,4.228-1.478-1.478a1.8,1.8,0,1,0-2.545,2.545l2.75,2.75a1.8,1.8,0,0,0,2.545,0l5.5-5.5a1.8,1.8,0,0,0,0-2.545Zm-.835,1.71-5.5,5.5a.619.619,0,0,1-.875,0l-2.75-2.75a.619.619,0,0,1,.876-.875l1.9,1.9a.59.59,0,0,0,.834,0L310,316.483a.619.619,0,1,1,.876.875Z" transform="translate(-300.387 -315.123)" fill="#909090"/>
    </g>
  </g>
  <g id="Group_793" data-name="Group 793" transform="translate(0 14.832)">
    <g id="Group_792" data-name="Group 792">
      <path id="Path_1561" data-name="Path 1561" d="M37.623,198.062v-4.679a.59.59,0,0,0-1.18,0v3.468a10.656,10.656,0,0,0-2.6-1.671l-.106-.047-.108-.047-.19-.079L33.41,195a10.559,10.559,0,0,0-1.638-.508v-3.467a.59.59,0,0,0-.59-.59h-3.8a.59.59,0,0,0-.59.59v3.545a10.585,10.585,0,0,0-4.894,2.81.59.59,0,0,0,.837.832,9.406,9.406,0,0,1,6.718-2.8q.126,0,.252,0l.044,0,.21.009.033,0,.223.015h.016a9.464,9.464,0,0,1,3.131.813l.1.047.1.049.18.09.018.009a9.47,9.47,0,1,1-13.732,9.4v-.007q-.011-.112-.02-.226c0-.016,0-.033,0-.049,0-.063-.009-.126-.012-.19,0-.036,0-.072,0-.108s0-.091-.005-.137q0-.126,0-.252a9.453,9.453,0,0,1,1.372-4.913.59.59,0,1,0-1.008-.613,10.632,10.632,0,0,0-1.544,5.526c0,.087,0,.175,0,.262,0,.02,0,.04,0,.06,0,.07,0,.139.008.208,0,.017,0,.033,0,.05q.006.114.014.228l0,.022a10.507,10.507,0,0,0,.632,2.88H1.18v-9.541a.59.59,0,1,0-1.18,0v10.131a.59.59,0,0,0,.59.59h19.4a10.648,10.648,0,1,0,17.631-11.712Zm-7.031-3.828H27.97v-2.622h2.622Z" transform="translate(0 -190.432)" fill="#909090"/>
    </g>
  </g>
  <g id="Group_795" data-name="Group 795" transform="translate(5.891 14.832)">
    <g id="Group_794" data-name="Group 794">
      <path id="Path_1562" data-name="Path 1562" d="M79.606,190.432H75.8a.59.59,0,0,0-.59.59v3.8a.59.59,0,0,0,.59.59h3.8a.59.59,0,0,0,.59-.59v-3.8A.59.59,0,0,0,79.606,190.432Zm-.59,3.8H76.394v-2.622h2.622v2.622Z" transform="translate(-75.214 -190.432)" fill="#909090"/>
    </g>
  </g>
  <g id="Group_797" data-name="Group 797" transform="translate(12.857 14.832)">
    <g id="Group_796" data-name="Group 796">
      <path id="Path_1563" data-name="Path 1563" d="M168.55,190.432h-3.8a.59.59,0,0,0-.59.59v3.8a.59.59,0,0,0,.59.59h3.8a.59.59,0,0,0,.59-.59v-3.8A.59.59,0,0,0,168.55,190.432Zm-.59,3.8h-2.622v-2.622h2.622Z" transform="translate(-164.158 -190.432)" fill="#909090"/>
    </g>
  </g>
  <g id="Group_799" data-name="Group 799" transform="translate(19.824 14.832)">
    <g id="Group_798" data-name="Group 798">
      <path id="Path_1564" data-name="Path 1564" d="M257.494,190.432h-3.8a.59.59,0,0,0-.59.59v3.8a.59.59,0,0,0,.59.59h3.8a.59.59,0,0,0,.59-.59v-3.8A.59.59,0,0,0,257.494,190.432Zm-.59,3.8h-2.622v-2.622H256.9Z" transform="translate(-253.102 -190.432)" fill="#909090"/>
    </g>
  </g>
  <g id="Group_801" data-name="Group 801" transform="translate(5.891 22.994)">
    <g id="Group_800" data-name="Group 800">
      <path id="Path_1565" data-name="Path 1565" d="M79.606,294.639H75.8a.59.59,0,0,0-.59.59v3.8a.59.59,0,0,0,.59.59h3.8a.59.59,0,0,0,.59-.59v-3.8A.59.59,0,0,0,79.606,294.639Zm-.59,3.8H76.394v-2.622h2.622v2.622Z" transform="translate(-75.214 -294.639)" fill="#909090"/>
    </g>
  </g>
  <g id="Group_803" data-name="Group 803" transform="translate(12.857 22.994)">
    <g id="Group_802" data-name="Group 802">
      <path id="Path_1566" data-name="Path 1566" d="M168.55,294.639h-3.8a.59.59,0,0,0-.59.59v3.8a.59.59,0,0,0,.59.59h3.8a.59.59,0,0,0,.59-.59v-3.8A.59.59,0,0,0,168.55,294.639Zm-.59,3.8h-2.622v-2.622h2.622Z" transform="translate(-164.158 -294.639)" fill="#909090"/>
    </g>
  </g>
  <g id="Group_805" data-name="Group 805">
    <g id="Group_804" data-name="Group 804">
      <path id="Path_1567" data-name="Path 1567" d="M37.053,5.539H33.366V3.406a2.341,2.341,0,1,0-4.683,0V5.539H8.98V3.406a2.341,2.341,0,1,0-4.683,0V5.539H.59a.59.59,0,0,0-.59.59V22.158a.59.59,0,0,0,1.18,0V13.106H36.443v3.381a.59.59,0,1,0,1.18,0v-3.82a.588.588,0,0,0,.02-.151V6.129A.59.59,0,0,0,37.053,5.539ZM29.864,3.406a1.161,1.161,0,1,1,2.322,0V8.02a1.161,1.161,0,1,1-2.322,0Zm-24.386,0a1.161,1.161,0,1,1,2.322,0V8.02a1.161,1.161,0,1,1-2.322,0V3.406Zm30.965,8.519H1.2V6.719H4.3v1.3a2.341,2.341,0,1,0,4.683,0v-1.3h19.7v1.3a2.341,2.341,0,1,0,4.683,0v-1.3h3.076v5.207Z" transform="translate(0 -1.065)" fill="#909090"/>
    </g>
  </g>
</svg>
