<svg id="filter_2_" data-name="filter (2)" xmlns="http://www.w3.org/2000/svg" width="32.192" height="32.192" viewBox="0 0 32.192 32.192">
  <path id="Path_1568" data-name="Path 1568" d="M26.433,0H5.759A5.766,5.766,0,0,0,0,5.759V26.433a5.766,5.766,0,0,0,5.759,5.759H26.433a5.766,5.766,0,0,0,5.759-5.759V5.759A5.766,5.766,0,0,0,26.433,0Zm3.873,26.433a3.877,3.877,0,0,1-3.873,3.873H5.759a3.877,3.877,0,0,1-3.873-3.873V5.759A3.877,3.877,0,0,1,5.759,1.886H26.433a3.877,3.877,0,0,1,3.873,3.873Z" transform="translate(0 0)" fill="#909090"/>
  <path id="Path_1569" data-name="Path 1569" d="M87.435,82.354H73.07a2.963,2.963,0,0,0-5.618,0H65.21a.943.943,0,1,0,0,1.886h2.242a2.963,2.963,0,0,0,5.618,0H87.435a.943.943,0,1,0,0-1.886Zm-17.173,2.02A1.077,1.077,0,1,1,71.338,83.3,1.078,1.078,0,0,1,70.261,84.375Z" transform="translate(-60.226 -75.283)" fill="#909090"/>
  <path id="Path_1570" data-name="Path 1570" d="M87.435,210.887H85.192a2.963,2.963,0,0,0-5.618,0H65.21a.943.943,0,1,0,0,1.886H79.575a2.963,2.963,0,0,0,5.618,0h2.242a.943.943,0,1,0,0-1.886Zm-5.051,2.02a1.077,1.077,0,1,1,1.077-1.077A1.078,1.078,0,0,1,82.384,212.908Z" transform="translate(-60.226 -195.734)" fill="#909090"/>
  <path id="Path_1571" data-name="Path 1571" d="M87.435,339.42H77.111a2.963,2.963,0,0,0-5.618,0H65.21a.943.943,0,0,0,0,1.886h6.283a2.963,2.963,0,0,0,5.618,0H87.435a.943.943,0,1,0,0-1.886ZM74.3,341.441a1.077,1.077,0,1,1,1.077-1.077A1.078,1.078,0,0,1,74.3,341.441Z" transform="translate(-60.226 -316.186)" fill="#909090"/>
</svg>
