<svg id="gear" xmlns="http://www.w3.org/2000/svg" width="31.7" height="31.7" viewBox="0 0 31.7 31.7">
  <g id="Group_709" data-name="Group 709">
    <g id="Group_708" data-name="Group 708">
      <path id="Path_1346" data-name="Path 1346" d="M31.7,18.471V13.229l-4.3-.847a11.99,11.99,0,0,0-.934-2.248l2.4-3.6-3.7-3.7-3.6,2.4A11.985,11.985,0,0,0,19.318,4.3L18.471,0H13.229l-.847,4.3a11.99,11.99,0,0,0-2.248.934l-3.6-2.4-3.7,3.7,2.4,3.6A11.99,11.99,0,0,0,4.3,12.382L0,13.229v5.242l4.3.847a11.992,11.992,0,0,0,.934,2.248l-2.4,3.6,3.7,3.7,3.6-2.4a11.989,11.989,0,0,0,2.248.934l.847,4.3h5.242l.847-4.3a11.989,11.989,0,0,0,2.248-.934l3.6,2.4,3.7-3.7-2.4-3.6a11.991,11.991,0,0,0,.934-2.248Zm-5.225,6.455-1.55,1.55-3.3-2.2A10.818,10.818,0,0,1,17.721,25.9l-.777,3.944H14.756L13.979,25.9a10.819,10.819,0,0,1-3.906-1.622l-3.3,2.2-1.55-1.55,2.2-3.3A10.818,10.818,0,0,1,5.8,17.721l-3.944-.777V14.756L5.8,13.979a10.827,10.827,0,0,1,1.622-3.906l-2.2-3.3,1.55-1.55,3.3,2.2A10.818,10.818,0,0,1,13.979,5.8l.777-3.944h2.188L17.721,5.8a10.818,10.818,0,0,1,3.906,1.622l3.3-2.2,1.55,1.55-2.2,3.3A10.823,10.823,0,0,1,25.9,13.979l3.944.777v2.188l-3.944.777a10.814,10.814,0,0,1-1.622,3.906Z" fill="#707070"/>
    </g>
  </g>
  <g id="Group_711" data-name="Group 711" transform="translate(9.349 9.349)">
    <g id="Group_710" data-name="Group 710">
      <path id="Path_1347" data-name="Path 1347" d="M157.5,151a6.5,6.5,0,1,0,6.5,6.5A6.508,6.508,0,0,0,157.5,151Zm0,11.145a4.644,4.644,0,1,1,4.644-4.644A4.649,4.649,0,0,1,157.5,162.145Z" transform="translate(-151 -151)" fill="#707070"/>
    </g>
  </g>
</svg>
