<?xml version="1.0" encoding="utf-8"?>
<!-- Generator: Adobe Illustrator 24.1.0, SVG Export Plug-In . SVG Version: 6.00 Build 0)  -->
<svg version="1.1" id="Capa_1" xmlns="http://www.w3.org/2000/svg" xmlns:xlink="http://www.w3.org/1999/xlink" x="0px" y="0px"
	 viewBox="0 0 512 512" style="enable-background:new 0 0 512 512;" xml:space="preserve">
<style type="text/css">
	.st0{fill:#CDD2E1;}
	.st1{fill:#9CA1AF;}
	.st2{fill:#FFDA45;}
	.st3{fill:#FFAE4D;}
	.st4{fill:#19CFFC;}
	.st5{fill:#27ADE2;}
	.st6{fill:#B4C0D1;}
	.st7{fill:#717891;}
	.st8{fill:#E0967C;}
	.st9{fill:#3C5A73;}
	.st10{fill:#FA503C;}
	.st11{fill:#FA735F;}
</style>
<g>
	<path class="st0" d="M393,188.1l28.8,16.3c4.6,2.6,6.9,7.2,6,11.8l-31,157.2l-27.7-3.5l29.6-150.1l-15.6-8.8l-9.6-33.4L393,188.1z"
		/>
	<path class="st1" d="M421.8,204.3L393,188.1l-19.5-10.5l3.6,12.6l25.3,14.3c4.6,2.6,6.9,7.2,6,11.8L378,370.9l18.9,2.4l31-157.2
		C428.8,211.5,426.4,206.9,421.8,204.3L421.8,204.3z"/>
	<path class="st2" d="M395.8,414.6l7.8-39.6c0.5-2.4-1.4-4.6-4.2-4.9L368,366c-2.7-0.4-5.3,1.2-5.8,3.5l-6.7,34L395.8,414.6z"/>
	<path class="st3" d="M399.4,370.1L368,366c-2-0.3-3.9,0.5-4.9,1.8l17.7,2.3c2.8,0.4,4.7,2.6,4.2,4.9l-6.9,34.8l17.7,4.9l7.8-39.6
		C404.1,372.6,402.2,370.4,399.4,370.1z"/>
	<path class="st0" d="M160.3,344.4l-11.7-59.3v-8.2h-28.4v8.2l12.2,62.1v6.2h27.8V344.4z"/>
	<path class="st0" d="M64.5,375.4v-15.1c0-2.4,2.3-4.3,5.1-4.3h45.8v23.7H69.6C66.8,379.7,64.5,377.8,64.5,375.4z"/>
	<path class="st4" d="M385.2,396.8l-204-63.6c-8.1-2.7-16.8-4.2-25.8-4.2c-42.5,0-76.9,32.4-76.9,72.5s34.4,72.5,76.9,72.5v4h216.7
		v-4c23.2,0,42-17.7,42-39.5C414.1,416.9,402,402,385.2,396.8L385.2,396.8z"/>
	<path class="st5" d="M386.8,394.8l-204-61.3c-8.1-2.6-16.8-4-25.8-4c-3.3,0-6.5,0.2-9.7,0.6c5.6,0.6,11,1.8,16.1,3.5l204,61.3
		c16.8,5,28.9,19.3,28.9,36.2c0,21-18.8,38.1-42,38.1v3.8h19.4v-3.8c23.2,0,42-17,42-38.1C415.7,414.1,403.6,399.8,386.8,394.8z"/>
	<ellipse class="st1" cx="155.4" cy="409.3" rx="48.9" ry="41.4"/>
	<path class="st1" d="M329.4,244.7l29.9,9.2c2.6,0.8,5.5-0.3,6.5-2.6l39.6-92c1-2.2-0.4-4.7-3-5.5l-29.9-9.2
		c-2.6-0.8-5.5,0.3-6.5,2.6l-39.6,92C325.4,241.4,326.8,243.9,329.4,244.7L329.4,244.7z"/>
	<path class="st4" d="M426.7,296.9H372l-20.5-7.1l-20.5,7.1h-23.1c-23.2,0-42-15.9-42-35.5v-23.7c0-1.5,0.3-3,1-4.4l28-59.1
		c2.9-6.1,11-9,18.2-6.6c7.2,2.4,10.7,9.3,7.8,15.4l-26.6,56.2c-0.2,0.5-0.4,1-0.4,1.6v20.5c0,6.5,6.3,11.8,14,11.8h22.3l21.3,7.1
		l20.9-7.1h54c7.8,0,14.5,5.4,14.3,12.1C440.6,291.8,434.4,296.9,426.7,296.9L426.7,296.9z"/>
	<path class="st6" d="M330.2,273.3h42v23.7h-42V273.3z"/>
	<path class="st0" d="M55.6,498H437c2.8,0,5.1-2.7,5.1-6v-11.1c0-8.8-6-15.9-13.5-15.9H64c-7.5,0-13.5,7.1-13.5,15.9V492
		C50.5,495.3,52.8,498,55.6,498z"/>
	<path class="st1" d="M437,498h-19.4c2.8,0,5.1-2.7,5.1-6v-11.1c0-8.8-6-15.9-13.5-15.9h19.4c7.5,0,13.5,7.1,13.5,15.9V492
		C442.1,495.3,439.8,498,437,498z"/>
	<path class="st7" d="M155.4,367.9c-3.3,0-6.6,0.3-9.7,0.8c22.4,3.8,39.2,20.5,39.2,40.6s-16.9,36.8-39.2,40.6
		c3.1,0.5,6.4,0.8,9.7,0.8c27,0,48.9-18.5,48.9-41.4S182.4,367.9,155.4,367.9z"/>
	<g>
		<path class="st0" d="M232.3,414.6h-76.9c-3.5,0-6.3-2.4-6.3-5.4s2.8-5.4,6.3-5.4h76.9c3.5,0,6.3,2.4,6.3,5.4
			S235.8,414.6,232.3,414.6z"/>
	</g>
	<path class="st2" d="M255.2,427h-17.8c-2.8,0-5.1-1.9-5.1-4.3v-26.9c0-2.4,2.3-4.3,5.1-4.3h17.8c2.8,0,5.1,1.9,5.1,4.3v26.9
		C260.3,425.1,258,427,255.2,427z"/>
	<path class="st3" d="M255.2,391.5h-17.8c-0.3,0-0.5,0-0.8,0.1c2.4,0.3,4.3,2.1,4.3,4.2v26.9c0,2.1-1.9,3.9-4.3,4.2
		c0.3,0,0.5,0.1,0.8,0.1h17.8c2.8,0,5.1-1.9,5.1-4.3v-26.9C260.3,393.5,258,391.5,255.2,391.5z"/>
	<path class="st1" d="M78.5,280.8v-7.5c0-13.1,12.5-23.7,28-23.7h69.9c15.4,0,28,10.6,28,23.7v7.5c0,2.4-2.3,4.3-5.1,4.3H83.6
		C80.8,285.1,78.5,283.2,78.5,280.8z"/>
	<path class="st7" d="M176.4,249.6H157c15.4,0,28,10.6,28,23.7v7.5c0,2.4-2.3,4.3-5.1,4.3h19.4c2.8,0,5.1-1.9,5.1-4.3v-7.5
		C204.3,260.2,191.8,249.6,176.4,249.6z"/>
	<path class="st7" d="M402.3,153.9l-29.9-9.2c-2.6-0.8-5.5,0.3-6.5,2.6l-0.5,1.2l17.7,5.5c2.6,0.8,4,3.3,3,5.5l-39.1,90.8l12.2,3.8
		c2.6,0.8,5.5-0.3,6.5-2.6l39.6-92C406.3,157.1,405,154.7,402.3,153.9L402.3,153.9z"/>
	<path class="st4" d="M390.6,193.7l4.3-10.1l-39.4-12.1l-4.3,10.1L390.6,193.7z"/>
	<g>
		<path class="st5" d="M426.4,273.3H407c7.8,0,14.5,5.4,14.3,12.1c-0.1,6.4-6.3,11.6-14,11.6h19.4c7.6,0,13.8-5.2,14-11.6
			C440.9,278.7,434.2,273.3,426.4,273.3L426.4,273.3z"/>
	</g>
</g>
<g>
	<circle class="st8" cx="259.3" cy="58.4" r="42.4"/>
	<path class="st8" d="M280.3,302c3.8-10.2-1.4-21.5-11.5-25.4l-46.8-18l38.3-101.3c5.6-14.8-0.3-30.8-13.4-35.8l-42.1-16.1
		c-13-5-28.2,3-33.8,17.8l-40.8,106.6c-6.7,17.4,2.1,36.9,19.4,43.6l86.5,33.2l-29.5,80.1c-3.8,10.3,1.5,21.7,11.8,25.5
		c2.3,0.8,4.6,1.2,6.9,1.2c8.1,0,15.7-5,18.7-13L280.3,302z"/>
	<path class="st9" d="M246.9,268.2l-24.9-9.6l38.3-101.3c5.6-14.8-0.3-30.8-13.4-35.8l-42.1-16.1c-13-5-28.2,3-33.8,17.8
		l-40.8,106.6c-6.7,17.4,2.1,36.9,19.4,43.6l66.2,25.4L246.9,268.2z"/>
	<path class="st10" d="M128.6,248.3c-1.1-5.9-0.7-12.3,1.6-18.3L171,123.3c5.6-14.8,20.8-22.7,33.8-17.8l42.1,16.1
		c13,5,19,21,13.4,35.8L222,258.6L128.6,248.3z"/>
	<path class="st8" d="M332.1,251.4c-1.3,0.1-2.5,0-3.8-0.1l-75.9-11.5c-5.6-0.9-10.5-4.5-12.9-9.7L200,145.3
		c-4-8.5-0.3-18.7,8.3-22.6c8.5-4,18.7-0.3,22.6,8.3l35.6,76.5l66.9,10.1c9.3,1.4,15.7,10.1,14.3,19.4
		C346.4,245,339.8,250.8,332.1,251.4z"/>
	<path class="st11" d="M219.2,186.4l31-14.2l-19.3-41.3c-4-8.5-14.1-12.2-22.6-8.3c-8.5,4-12.2,14.1-8.3,22.6L219.2,186.4z"/>
</g>
</svg>
