<?xml version="1.0" encoding="iso-8859-1"?>
<!-- Generator: Adobe Illustrator 19.0.0, SVG Export Plug-In . SVG Version: 6.00 Build 0)  -->
<svg version="1.1" id="Capa_1" xmlns="http://www.w3.org/2000/svg" xmlns:xlink="http://www.w3.org/1999/xlink" x="0px" y="0px"
	 viewBox="0 0 512 512" style="enable-background:new 0 0 512 512;" xml:space="preserve">
<path style="fill:#87AFB9;" d="M256,512c-76.943,0-139.54-62.598-139.54-139.541V244.422h22.581v128.038
	c0,64.492,52.468,116.96,116.96,116.96s116.96-52.468,116.96-116.96V243.293h22.581v129.167C395.54,449.403,332.944,512,256,512z"/>
<g>
	<path style="fill:#FFB69E;" d="M282.58,462.085c-12.162,0-22.021-9.86-22.021-22.021V264.048c0-12.162,9.859-22.021,22.021-22.021
		s22.021,9.86,22.021,22.021v176.016C304.601,452.225,294.742,462.085,282.58,462.085z"/>
	<path style="fill:#FFB69E;" d="M229.421,462.085c-12.162,0-22.021-9.86-22.021-22.021V264.048c0-12.162,9.859-22.021,22.021-22.021
		c12.163,0,22.021,9.86,22.021,22.021v176.016C251.441,452.225,241.583,462.085,229.421,462.085z"/>
</g>
<path style="fill:#3C5064;" d="M304.601,331.313v-67.266c0-12.162-9.859-22.021-22.021-22.021s-22.021,9.86-22.021,22.021v67.266
	H304.601z"/>
<path style="fill:#3C5A73;" d="M251.441,331.313v-67.266c0-12.162-9.859-22.021-22.021-22.021c-12.163,0-22.021,9.86-22.021,22.021
	v67.266H251.441z"/>
<path style="fill:#FFB69E;" d="M395.132,220.238l-46.188-34.015v-54.826c-0.12-23.826-19.762-43.209-43.788-43.209
	c-11.095,0-87.215,0-98.312,0c-24.025,0-43.669,19.383-43.788,43.3v54.735l-46.188,34.014c-8.161,6.01-9.904,17.497-3.895,25.658
	c6.011,8.161,17.499,9.903,25.658,3.894l53.657-39.515c4.696-3.458,7.469-8.944,7.469-14.776v-63.917
	c0.018-3.628,3.264-6.692,7.087-6.692c0.17,0,0.356,0,0.556,0v139.159H304.6V124.889c0.199,0,0.386,0,0.556,0
	c3.823,0,7.069,3.064,7.087,6.599v64.01c0,5.832,2.773,11.318,7.469,14.776l53.657,39.515c8.178,6.023,19.66,4.249,25.658-3.894
	C405.037,237.736,403.293,226.248,395.132,220.238z"/>
<path style="fill:#FFA50A;" d="M305.156,88.188h-29.382c0.001,0.029,0.006,0.056,0.008,0.085
	c0.503,11.221-9.909,20.779-20.778,20.779c-11.649,0-20.275-9.52-20.778-20.779c-0.001-0.028,0-0.057-0.001-0.085h-27.378
	c-24.025,0-43.669,19.383-43.788,43.3v37.244h36.701v-37.151c0.018-3.628,3.264-6.692,7.087-6.692h0.556v139.159h97.201V124.889
	h0.556c3.823,0,7.069,3.064,7.087,6.599v37.244h36.701v-37.336C348.825,107.571,329.182,88.188,305.156,88.188z"/>
<circle style="fill:#FFB69E;" cx="256.001" cy="38.032" r="38.032"/>
<g>
</g>
<g>
</g>
<g>
</g>
<g>
</g>
<g>
</g>
<g>
</g>
<g>
</g>
<g>
</g>
<g>
</g>
<g>
</g>
<g>
</g>
<g>
</g>
<g>
</g>
<g>
</g>
<g>
</g>
</svg>
