<svg height="512pt" viewBox="-54 0 512 512.00506" width="512pt" xmlns="http://www.w3.org/2000/svg"><path d="m273.394531 179.0625-110.992187-30.214844c-10.640625-2.898437-16.917969-13.875-14.023438-24.515625 2.898438-10.640625 13.875-16.921875 24.515625-14.023437l107.394531 29.234375 93.699219-9.710938c10.960938-1.144531 20.785157 6.835938 21.921875 17.804688 1.136719 10.972656-6.835937 20.789062-17.804687 21.925781l-97.40625 10.09375c-2.375.246094-4.859375.070312-7.304688-.59375zm0 0" fill="#ffac91"/><path d="m13.488281 508.875c-12.515625-6.800781-17.152343-22.457031-10.355469-34.972656l53.871094-99.175782 25.8125-110.308593c3.246094-13.867188 17.117188-22.480469 30.984375-19.234375 13.871094 3.246094 22.480469 17.117187 19.238281 30.988281l-26.605468 113.6875c-.523438 2.242187-1.347656 4.40625-2.449219 6.433594l-55.523437 102.226562c-6.816407 12.546875-22.488282 17.136719-34.972657 10.355469zm0 0" fill="#5f6e9b"/><path d="m225.253906 512.003906c-12.699218 0-23.761718-9.378906-25.519531-22.3125l-17.039063-125.171875-38.277343-97.921875c-5.183594-13.265625 1.363281-28.222656 14.628906-33.410156 13.269531-5.183594 28.226563 1.367188 33.410156 14.632812l39.398438 100.785157c.742187 1.902343 1.257812 3.886719 1.53125 5.910156l17.457031 128.21875c2.105469 15.480469-9.925781 29.269531-25.589844 29.269531zm0 0" fill="#414b82"/><path d="m135.972656 295.890625-57.183594-10.855469 31.667969-162.640625c3.394531-17.433593 20.238281-28.84375 37.6875-25.535156l56.675781 10.761719c17.507813 3.320312 29.007813 20.207031 25.683594 37.714844l-18.789062 98.980468c-6.671875 35.15625-40.582032 58.246094-75.742188 51.574219zm0 0" fill="#64afff"/><path d="m224.332031.839844c-25.917969-4.921875-50.914062 12.101562-55.835937 38.015625-4.917969 25.917969 12.101562 50.917969 38.019531 55.835937 25.917969 4.921875 50.917969-12.101562 55.835937-38.019531 4.917969-25.917969-12.101562-50.914063-38.019531-55.832031zm0 0" fill="#ffb69e"/><path d="m215.972656 193.503906-30.734375-24.433594-1.132812-28.347656 25.289062-3.472656 11.742188 9.335938 31.535156-66.476563c4.730469-9.964844 16.644531-14.210937 26.605469-9.484375 9.964844 4.726562 14.210937 16.640625 9.484375 26.605469l-42.316407 89.199219c-5.507812 11.613281-20.414062 15.070312-30.472656 7.074218zm0 0" fill="#ffb69e"/><path d="m209.394531 137.25-29.320312-23.308594c-8.632813-6.863281-21.195313-5.425781-28.058594 3.207032-6.863281 8.632812-5.429687 21.199218 3.207031 28.0625l30.015625 23.859374zm0 0" fill="#4699f2"/><g fill="#fa503c"><path d="m278.640625 62.882812c-10.808594 0-20.175781 6.152344-24.804687 15.144532-1.335938 2.121094.023437-.265625-24.089844 50.410156l35.136718 19.128906 13.710938-28.90625c.015625 0 .03125.003906.046875.003906 15.402344 0 27.890625-12.488281 27.890625-27.890624 0-15.40625-12.488281-27.890626-27.890625-27.890626zm0 0"/><path d="m376.046875 129.578125c-.332031 0-66.824219 6.964844-66.980469 6.980469l5.824219 39.550781 37.492187-3.882813c4.925782 7.882813 13.679688 13.132813 23.660157 13.132813 15.40625 0 27.890625-12.488281 27.890625-27.890625 0-15.40625-12.484375-27.890625-27.886719-27.890625zm0 0"/></g></svg>