<svg xmlns="http://www.w3.org/2000/svg" width="141.519" height="99.063" viewBox="0 0 141.519 99.063">
  <g id="picture" transform="translate(0 -72)">
    <g id="Group_674" data-name="Group 674" transform="translate(0 72)">
      <g id="Group_673" data-name="Group 673" transform="translate(0 0)">
        <path id="Path_1301" data-name="Path 1301" d="M129.726,72H11.793A11.807,11.807,0,0,0,0,83.793V159.27a11.807,11.807,0,0,0,11.793,11.793H129.726a10.916,10.916,0,0,0,1.974-.172,11.76,11.76,0,0,0,9.819-11.621V83.793A11.807,11.807,0,0,0,129.726,72ZM11.793,166.346a7.076,7.076,0,0,1-7.048-6.453l47.027-30.747,47.824,37.2ZM136.8,159.27a7.06,7.06,0,0,1-5.92,6.975,6.412,6.412,0,0,1-1.156.1H107.278l-31.25-24.32,27.945-22.346,32.828,19.7Zm0-25.393L105,114.793a2.359,2.359,0,0,0-2.689.179L72.193,139.054,53.336,124.388a2.359,2.359,0,0,0-2.736-.113l-45.883,30V83.793a7.076,7.076,0,0,1,7.076-7.076H129.726a7.076,7.076,0,0,1,7.076,7.076Z" transform="translate(0 -72)" fill="#fff"/>
        <path id="Path_1302" data-name="Path 1302" d="M206.152,120A14.152,14.152,0,1,0,220.3,134.152,14.152,14.152,0,0,0,206.152,120Zm0,23.586a9.435,9.435,0,1,1,9.435-9.435A9.435,9.435,0,0,1,206.152,143.586Z" transform="translate(-135.392 -105.848)" fill="#fff"/>
      </g>
    </g>
  </g>
</svg>
