<svg xmlns="http://www.w3.org/2000/svg" xmlns:xlink="http://www.w3.org/1999/xlink" width="726.282" height="728.564" viewBox="0 0 726.282 728.564">
  <defs>
    <filter id="Path_1067" x="10.912" y="0" width="715.369" height="696.064" filterUnits="userSpaceOnUse">
      <feOffset dx="20" dy="40" input="SourceAlpha"/>
      <feGaussianBlur stdDeviation="5" result="blur"/>
      <feFlood flood-opacity="0.161"/>
      <feComposite operator="in" in2="blur"/>
      <feComposite in="SourceGraphic"/>
    </filter>
    <clipPath id="clip-path">
      <rect id="Rectangle_86" data-name="Rectangle 86" width="347.186" height="560.833"/>
    </clipPath>
    <clipPath id="clip-path-3">
      <rect id="Rectangle_89" data-name="Rectangle 89" width="347.186" height="560.833" fill="#5063ee"/>
    </clipPath>
    <clipPath id="clip-path-41">
      <rect id="Rectangle_127" data-name="Rectangle 127" width="347.186" height="560.833" transform="translate(0)"/>
    </clipPath>
    <linearGradient id="linear-gradient" x1="0.5" y1="1" x2="0.5" gradientUnits="objectBoundingBox">
      <stop offset="0" stop-color="#153556"/>
      <stop offset="1" stop-color="#fff"/>
    </linearGradient>
    <clipPath id="clip-path-58">
      <rect id="Rectangle_145" data-name="Rectangle 145" width="19.637" height="10.592"/>
    </clipPath>
  </defs>
  <g id="Group_414" data-name="Group 414" transform="translate(37 -121)">
    <g transform="matrix(1, 0, 0, 1, -37, 121)" filter="url(#Path_1067)">
      <path id="Path_1067-2" data-name="Path 1067" d="M350.263,98.178c7.609-5.642,86.36-39.373,94.334-43.808C605.48-35.09,724.369,180.972,724.369,325.56c0,91.542-44.01,237.111-146.67,313.329-67.457,50.082-201.314,32.543-267.5,32.543C143.081,671.432,44,396.181,44,244.621S184.855,220.839,350.263,98.178Z" transform="translate(-33.09 -33.34)" fill="#e8e9eb"/>
    </g>
    <g id="_3775330" data-name="3775330" transform="translate(-37 174.658)">
      <g id="BACKGROUND" transform="translate(0 57.923)">
        <g id="Group_282" data-name="Group 282" transform="translate(0 616.983)">
          <path id="Path_1066" data-name="Path 1066" d="M672.946,376.8h0Z" transform="translate(0 -376.8)" fill="#b6c5ce"/>
        </g>
        <g id="Group_283" data-name="Group 283" transform="translate(127.445)">
          <path id="Path_943" data-name="Path 943" d="M368.685,198.78A157.066,157.066,0,1,0,525.751,355.845,157.068,157.068,0,0,0,368.685,198.78Z" transform="translate(-54.247 12.794)" fill="#5b5b5b"/>
          <path id="Path_944" data-name="Path 944" d="M224.828,255.494a82.584,82.584,0,1,1-82.584-82.584A82.581,82.581,0,0,1,224.828,255.494Z" transform="translate(-59.66 -24.729)" fill="#5b5b5b"/>
          <path id="Path_945" data-name="Path 945" d="M421.043,97.677a56.1,56.1,0,1,1-56.1-56.1A56.1,56.1,0,0,1,421.043,97.677Z" transform="translate(-20.616 -41.58)" fill="#fff"/>
        </g>
      </g>
      <g id="OBJECTS" transform="translate(86.898 -5.67)">
        <g id="Group_324" data-name="Group 324" transform="translate(21.321 89.619)">
          <g id="Group_323" data-name="Group 323" transform="translate(331.641 106.646)">
            <path id="Path_946" data-name="Path 946" d="M428.409,225.12a53.852,53.852,0,1,1-22.8-72.665A53.859,53.859,0,0,1,428.409,225.12Z" transform="translate(-326.817 -138.021)" fill="#fff"/>
            <rect id="Rectangle_83" data-name="Rectangle 83" width="9.408" height="11.965" transform="translate(71.317 15.837) rotate(-62.413)" fill="#fff"/>
            <g id="Group_284" data-name="Group 284" transform="translate(70.873)">
              <path id="Path_947" data-name="Path 947" d="M399.482,155.451a2.707,2.707,0,0,1-3.634,1.144L380.922,148.8a2.707,2.707,0,0,1-1.144-3.634l1.857-3.567a2.707,2.707,0,0,1,3.634-1.144l14.926,7.793a2.707,2.707,0,0,1,1.144,3.634Z" transform="translate(-379.475 -140.155)" fill="#fff"/>
            </g>
            <rect id="Rectangle_84" data-name="Rectangle 84" width="7.174" height="9.125" transform="translate(102.694 43.228) rotate(-17.428)" fill="#fff"/>
            <g id="Group_285" data-name="Group 285" transform="translate(107.175 36.478)">
              <path id="Path_948" data-name="Path 948" d="M413.409,184.1a2.7,2.7,0,0,1-3.378-1.763L406.572,171.3a2.7,2.7,0,0,1,1.763-3.378l1.7-.538a2.7,2.7,0,0,1,3.378,1.763l3.459,11.036a2.7,2.7,0,0,1-1.763,3.378Z" transform="translate(-406.448 -167.258)" fill="#fff"/>
            </g>
            <path id="Path_949" data-name="Path 949" d="M415.353,216.9a42.432,42.432,0,1,1-17.968-57.254A42.438,42.438,0,0,1,415.353,216.9Z" transform="translate(-323.882 -135.086)" fill="#5063ee"/>
            <path id="Path_950" data-name="Path 950" d="M375.59,191.859a7.654,7.654,0,1,1-3.244-10.336A7.659,7.659,0,0,1,375.59,191.859Z" transform="translate(-314.94 -126.147)" fill="#fff"/>
            <g id="Group_286" data-name="Group 286" transform="translate(53.217 30.756)">
              <path id="Path_951" data-name="Path 951" d="M366.7,194.989a.642.642,0,0,1-.269-.861l16.083-30.781a.638.638,0,0,1,1.131.592l-16.07,30.781A.654.654,0,0,1,366.7,194.989Z" transform="translate(-366.357 -163.007)" fill="#fff"/>
            </g>
            <g id="Group_287" data-name="Group 287" transform="translate(70.754 26.139)">
              <path id="Path_952" data-name="Path 952" d="M379.728,162.623a.642.642,0,0,1-.269-.861l.969-1.844a.638.638,0,0,1,1.131.592l-.969,1.844A.642.642,0,0,1,379.728,162.623Z" transform="translate(-379.387 -159.577)" fill="#fff"/>
            </g>
            <g id="Group_288" data-name="Group 288" transform="translate(34.832 94.887)">
              <path id="Path_953" data-name="Path 953" d="M353.038,213.7a.642.642,0,0,1-.269-.861l.969-1.844a.642.642,0,0,1,.861-.269.631.631,0,0,1,.269.861l-.956,1.844A.635.635,0,0,1,353.038,213.7Z" transform="translate(-352.697 -210.657)" fill="#fff"/>
            </g>
            <g id="Group_289" data-name="Group 289" transform="translate(64.671 23.462)">
              <path id="Path_954" data-name="Path 954" d="M375.315,160.834a.645.645,0,0,1-.417-.808l.633-1.992a.643.643,0,0,1,1.225.39l-.633,1.992A.645.645,0,0,1,375.315,160.834Z" transform="translate(-374.867 -157.587)" fill="#fff"/>
            </g>
            <g id="Group_290" data-name="Group 290" transform="translate(41.239 97.405)">
              <path id="Path_955" data-name="Path 955" d="M357.9,215.774a.645.645,0,0,1-.417-.808l.633-1.992a.643.643,0,1,1,1.225.39l-.619,1.992A.665.665,0,0,1,357.9,215.774Z" transform="translate(-357.457 -212.527)" fill="#fff"/>
            </g>
            <g id="Group_291" data-name="Group 291" transform="translate(58.25 21.964)">
              <path id="Path_956" data-name="Path 956" d="M370.653,159.806a.638.638,0,0,1-.552-.713l.269-2.059a.644.644,0,0,1,1.279.162l-.283,2.073A.638.638,0,0,1,370.653,159.806Z" transform="translate(-370.097 -156.475)" fill="#fff"/>
            </g>
            <g id="Group_292" data-name="Group 292" transform="translate(48.008 98.844)">
              <path id="Path_957" data-name="Path 957" d="M363.043,216.939a.651.651,0,0,1-.552-.727l.269-2.059a.658.658,0,0,1,.727-.552.645.645,0,0,1,.552.713l-.269,2.059A.641.641,0,0,1,363.043,216.939Z" transform="translate(-362.487 -213.597)" fill="#fff"/>
            </g>
            <g id="Group_293" data-name="Group 293" transform="translate(51.578 21.634)">
              <path id="Path_958" data-name="Path 958" d="M365.907,159.595a.655.655,0,0,1-.673-.619l-.094-2.073a.638.638,0,0,1,.619-.673.653.653,0,0,1,.673.606l.094,2.086A.656.656,0,0,1,365.907,159.595Z" transform="translate(-365.14 -156.23)" fill="#fff"/>
            </g>
            <g id="Group_294" data-name="Group 294" transform="translate(54.862 99.144)">
              <path id="Path_959" data-name="Path 959" d="M368.334,217.185a.635.635,0,0,1-.659-.619l-.094-2.073a.656.656,0,0,1,.619-.673.627.627,0,0,1,.659.619l.094,2.086A.652.652,0,0,1,368.334,217.185Z" transform="translate(-367.58 -213.82)" fill="#fff"/>
            </g>
            <g id="Group_295" data-name="Group 295" transform="translate(44.698 22.533)">
              <path id="Path_960" data-name="Path 960" d="M361.256,160.2a.646.646,0,0,1-.767-.484l-.444-2.032a.642.642,0,1,1,1.252-.283l.444,2.032A.629.629,0,0,1,361.256,160.2Z" transform="translate(-360.027 -156.897)" fill="#fff"/>
            </g>
            <g id="Group_296" data-name="Group 296" transform="translate(61.388 98.293)">
              <path id="Path_961" data-name="Path 961" d="M373.655,216.488a.646.646,0,0,1-.767-.485l-.444-2.032a.646.646,0,0,1,.484-.767.616.616,0,0,1,.754.485l.458,2.032A.636.636,0,0,1,373.655,216.488Z" transform="translate(-372.428 -213.187)" fill="#fff"/>
            </g>
            <g id="Group_297" data-name="Group 297" transform="translate(38.084 24.614)">
              <path id="Path_962" data-name="Path 962" d="M356.791,161.6a.644.644,0,0,1-.834-.35l-.794-1.925a.64.64,0,0,1,1.184-.485l.794,1.925A.644.644,0,0,1,356.791,161.6Z" transform="translate(-355.113 -158.443)" fill="#fff"/>
            </g>
            <g id="Group_298" data-name="Group 298" transform="translate(67.667 96.323)">
              <path id="Path_963" data-name="Path 963" d="M378.771,214.882a.633.633,0,0,1-.834-.35l-.794-1.925a.64.64,0,0,1,1.184-.485l.794,1.925A.644.644,0,0,1,378.771,214.882Z" transform="translate(-377.093 -211.723)" fill="#fff"/>
            </g>
            <g id="Group_299" data-name="Group 299" transform="translate(31.909 27.792)">
              <path id="Path_964" data-name="Path 964" d="M352.631,163.759a.653.653,0,0,1-.888-.2l-1.117-1.763a.644.644,0,0,1,1.09-.686l1.117,1.763A.636.636,0,0,1,352.631,163.759Z" transform="translate(-350.525 -160.805)" fill="#fff"/>
            </g>
            <g id="Group_300" data-name="Group 300" transform="translate(73.51 93.283)">
              <path id="Path_965" data-name="Path 965" d="M383.528,212.419a.623.623,0,0,1-.875-.2l-1.117-1.763a.638.638,0,0,1,.2-.888.62.62,0,0,1,.875.2l1.117,1.763A.638.638,0,0,1,383.528,212.419Z" transform="translate(-381.435 -209.465)" fill="#fff"/>
            </g>
            <g id="Group_301" data-name="Group 301" transform="translate(26.405 32.033)">
              <path id="Path_966" data-name="Path 966" d="M348.918,166.6a.639.639,0,0,1-.9-.04l-1.413-1.534a.638.638,0,0,1,.942-.861l1.4,1.534A.626.626,0,0,1,348.918,166.6Z" transform="translate(-346.436 -163.956)" fill="#fff"/>
            </g>
            <g id="Group_302" data-name="Group 302" transform="translate(78.733 89.3)">
              <path id="Path_967" data-name="Path 967" d="M387.784,209.149a.638.638,0,0,1-.9-.04l-1.4-1.534a.638.638,0,0,1,.942-.861l1.4,1.534A.627.627,0,0,1,387.784,209.149Z" transform="translate(-385.316 -206.506)" fill="#fff"/>
            </g>
            <g id="Group_303" data-name="Group 303" transform="translate(21.703 37.129)">
              <path id="Path_968" data-name="Path 968" d="M345.752,170.054a.641.641,0,0,1-.9.108L343.2,168.9a.643.643,0,1,1,.781-1.023l1.655,1.265A.661.661,0,0,1,345.752,170.054Z" transform="translate(-342.942 -167.742)" fill="#fff"/>
            </g>
            <g id="Group_304" data-name="Group 304" transform="translate(83.183 84.45)">
              <path id="Path_969" data-name="Path 969" d="M391.419,205.2a.643.643,0,0,1-.9.121l-1.642-1.265a.643.643,0,0,1,.781-1.023L391.3,204.3A.643.643,0,0,1,391.419,205.2Z" transform="translate(-388.622 -202.902)" fill="#fff"/>
            </g>
            <g id="Group_305" data-name="Group 305" transform="translate(17.968 42.99)">
              <path id="Path_970" data-name="Path 970" d="M343.226,174a.642.642,0,0,1-.861.269l-1.844-.969a.636.636,0,0,1-.283-.861.642.642,0,0,1,.861-.269l1.844.969A.632.632,0,0,1,343.226,174Z" transform="translate(-340.167 -172.097)" fill="#fff"/>
            </g>
            <g id="Group_306" data-name="Group 306" transform="translate(86.721 78.912)">
              <path id="Path_971" data-name="Path 971" d="M394.3,200.675a.642.642,0,0,1-.861.269l-1.844-.956a.62.62,0,0,1-.269-.861.642.642,0,0,1,.861-.269l1.844.969A.6.6,0,0,1,394.3,200.675Z" transform="translate(-391.25 -198.787)" fill="#fff"/>
            </g>
            <g id="Group_307" data-name="Group 307" transform="translate(15.304 49.397)">
              <path id="Path_972" data-name="Path 972" d="M341.421,178.328a.645.645,0,0,1-.807.417l-1.978-.633a.643.643,0,1,1,.39-1.225l1.992.633A.632.632,0,0,1,341.421,178.328Z" transform="translate(-338.187 -176.857)" fill="#fff"/>
            </g>
            <g id="Group_308" data-name="Group 308" transform="translate(89.247 72.816)">
              <path id="Path_973" data-name="Path 973" d="M396.361,195.728a.639.639,0,0,1-.807.417l-1.978-.633a.643.643,0,0,1,.39-1.225l1.992.633A.632.632,0,0,1,396.361,195.728Z" transform="translate(-393.127 -194.257)" fill="#fff"/>
            </g>
            <g id="Group_309" data-name="Group 309" transform="translate(13.795 56.193)">
              <path id="Path_974" data-name="Path 974" d="M340.409,182.894a.643.643,0,0,1-.727.552l-2.059-.269a.638.638,0,1,1,.161-1.265l2.073.269A.63.63,0,0,1,340.409,182.894Z" transform="translate(-337.067 -181.907)" fill="#fff"/>
            </g>
            <g id="Group_310" data-name="Group 310" transform="translate(90.686 66.408)">
              <path id="Path_975" data-name="Path 975" d="M397.526,190.5a.645.645,0,0,1-.713.552l-2.059-.269a.651.651,0,0,1-.552-.727.643.643,0,0,1,.727-.552l2.059.283A.619.619,0,0,1,397.526,190.5Z" transform="translate(-394.197 -189.497)" fill="#fff"/>
            </g>
            <g id="Group_311" data-name="Group 311" transform="translate(13.476 63.007)">
              <path id="Path_976" data-name="Path 976" d="M340.195,187.6a.635.635,0,0,1-.619.659l-2.073.081a.636.636,0,0,1-.673-.606.655.655,0,0,1,.619-.673l2.086-.094A.655.655,0,0,1,340.195,187.6Z" transform="translate(-336.83 -186.97)" fill="#fff"/>
            </g>
            <g id="Group_312" data-name="Group 312" transform="translate(90.973 59.737)">
              <path id="Path_977" data-name="Path 977" d="M397.775,185.159a.655.655,0,0,1-.619.673l-2.073.094a.647.647,0,1,1-.054-1.292l2.086-.094A.653.653,0,0,1,397.775,185.159Z" transform="translate(-394.41 -184.54)" fill="#fff"/>
            </g>
            <g id="Group_313" data-name="Group 313" transform="translate(14.362 69.536)">
              <path id="Path_978" data-name="Path 978" d="M340.8,192.331a.644.644,0,0,1-.5.767l-2.032.444a.636.636,0,0,1-.767-.485.646.646,0,0,1,.484-.767l2.032-.458A.662.662,0,0,1,340.8,192.331Z" transform="translate(-337.488 -191.821)" fill="#fff"/>
            </g>
            <g id="Group_314" data-name="Group 314" transform="translate(90.122 52.869)">
              <path id="Path_979" data-name="Path 979" d="M397.078,179.939a.653.653,0,0,1-.484.767l-2.032.444a.646.646,0,0,1-.767-.485.636.636,0,0,1,.484-.767l2.032-.444A.629.629,0,0,1,397.078,179.939Z" transform="translate(-393.777 -179.437)" fill="#fff"/>
            </g>
            <g id="Group_315" data-name="Group 315" transform="translate(16.457 75.825)">
              <path id="Path_980" data-name="Path 980" d="M342.2,196.893a.644.644,0,0,1-.35.834l-1.925.794a.633.633,0,0,1-.834-.35.644.644,0,0,1,.35-.834l1.925-.794A.633.633,0,0,1,342.2,196.893Z" transform="translate(-339.045 -196.493)" fill="#fff"/>
            </g>
            <g id="Group_316" data-name="Group 316" transform="translate(88.166 46.242)">
              <path id="Path_981" data-name="Path 981" d="M395.481,174.913a.633.633,0,0,1-.35.834l-1.925.794a.64.64,0,1,1-.485-1.184l1.925-.794A.633.633,0,0,1,395.481,174.913Z" transform="translate(-392.325 -174.513)" fill="#fff"/>
            </g>
            <g id="Group_317" data-name="Group 317" transform="translate(19.651 81.662)">
              <path id="Path_982" data-name="Path 982" d="M344.355,201.126a.641.641,0,0,1-.2.888l-1.75,1.117a.639.639,0,1,1-.686-1.077l1.763-1.117A.619.619,0,0,1,344.355,201.126Z" transform="translate(-341.418 -200.83)" fill="#fff"/>
            </g>
            <g id="Group_318" data-name="Group 318" transform="translate(85.125 40.07)">
              <path id="Path_983" data-name="Path 983" d="M393.006,170.227a.641.641,0,0,1-.2.888l-1.75,1.117a.644.644,0,1,1-.686-1.09l1.763-1.117A.632.632,0,0,1,393.006,170.227Z" transform="translate(-390.065 -169.928)" fill="#fff"/>
            </g>
            <g id="Group_319" data-name="Group 319" transform="translate(23.874 86.884)">
              <path id="Path_984" data-name="Path 984" d="M347.2,204.925a.639.639,0,0,1-.04.9l-1.534,1.4a.638.638,0,1,1-.861-.942l1.534-1.413A.64.64,0,0,1,347.2,204.925Z" transform="translate(-344.556 -204.711)" fill="#fff"/>
            </g>
            <g id="Group_320" data-name="Group 320" transform="translate(81.129 34.563)">
              <path id="Path_985" data-name="Path 985" d="M389.753,166.043a.639.639,0,0,1-.04.9l-1.534,1.4a.655.655,0,0,1-.915-.04.639.639,0,0,1,.04-.9l1.534-1.4A.654.654,0,0,1,389.753,166.043Z" transform="translate(-387.096 -165.836)" fill="#fff"/>
            </g>
            <g id="Group_321" data-name="Group 321" transform="translate(28.971 91.341)">
              <path id="Path_986" data-name="Path 986" d="M350.654,208.154a.641.641,0,0,1,.108.9l-1.265,1.655a.643.643,0,0,1-1.023-.781l1.279-1.655A.643.643,0,0,1,350.654,208.154Z" transform="translate(-348.342 -208.022)" fill="#fff"/>
            </g>
            <g id="Group_322" data-name="Group 322" transform="translate(76.292 29.864)">
              <path id="Path_987" data-name="Path 987" d="M385.8,162.486a.643.643,0,0,1,.121.9l-1.265,1.655a.643.643,0,0,1-1.023-.781l1.265-1.655A.621.621,0,0,1,385.8,162.486Z" transform="translate(-383.502 -162.345)" fill="#fff"/>
            </g>
          </g>
          <path id="Path_988" data-name="Path 988" d="M358.98,79.064c.081-.35.175-.713.256-1.09.108-.417.148-.834.229-1.265.054-.431.161-.848.175-1.279l.081-1.09c1.8.659,9.246,3.015,15.76.242,7.47-3.19,10.888-11.952,10.888-11.952s-8.694-3.58-16.164-.39c-5.949,2.544-9.327,8.6-10.458,10.982v-.215a9.593,9.593,0,0,0-.04-1.09c-.013-.35-.04-.686-.04-1s-.04-.511-.04-.713a3.514,3.514,0,0,1,.027-.633,1.4,1.4,0,1,0-2.328.821l.013.013a3.634,3.634,0,0,1,.4.471,4.113,4.113,0,0,1,.377.565c.094.2.175.444.283.713a4.314,4.314,0,0,1,.188.942c.04.35.108.713.121,1.1s.013.781.027,1.2-.054.821-.067,1.238a9.427,9.427,0,0,1-.135,1.238c-.054.283-.108.565-.148.848-10.013-11.319-23.782-4.038-27.995,8.546-3.62,10.808.31,23.728,9.367,30a6.039,6.039,0,0,0,6.016.538,5.316,5.316,0,0,0,4.118,3.122c11.292,1.413,22.84-7.079,26.581-18.21C380.7,90.033,375.885,76.628,358.98,79.064Z" transform="translate(5.599 -60.917)" fill="#5b5b5b"/>
          <path id="Path_989" data-name="Path 989" d="M138.4,203.383c-.094-.283-.2-.565-.3-.861-.121-.323-.2-.673-.3-1.009s-.2-.686-.256-1.023c-.054-.3-.108-.592-.162-.875-1.427.686-7.295,3.244-12.84,1.521-6.366-1.978-9.906-8.843-9.906-8.843s6.8-3.661,13.163-1.682c5.074,1.575,8.331,6.231,9.462,8.075,0-.054-.013-.121-.013-.175a6.89,6.89,0,0,1-.054-.9c-.013-.3-.027-.565-.054-.808s-.013-.417-.027-.579a2.941,2.941,0,0,0-.081-.511,1.145,1.145,0,1,1,1.965.471L139,196.2a2.868,2.868,0,0,0-.3.417,3.254,3.254,0,0,0-.256.485q-.081.262-.161.606a2.815,2.815,0,0,0-.067.781c0,.283-.027.592,0,.9s.054.646.081.969a8.523,8.523,0,0,0,.161,1,8.186,8.186,0,0,0,.215,1c.067.229.135.458.2.673,7.227-10.081,19.071-5.3,23.58,4.616,3.876,8.519,1.75,19.394-5.114,25.289a4.966,4.966,0,0,1-4.859.956,4.391,4.391,0,0,1-3.1,2.907c-9.1,2.1-19.246-3.849-23.23-12.624C121.608,214.177,124.408,202.831,138.4,203.383Z" transform="translate(-68.562 -16.26)" fill="#fff"/>
          <path id="Path_990" data-name="Path 990" d="M160.465,131.458a4.325,4.325,0,0,0-5.437,2.8l1.332-4.159a5.565,5.565,0,1,0-10.606-3.378l-4.616,14.455-35.76-11.413,4.616-14.455a5.574,5.574,0,0,0-10.619-3.392l-1.332,4.159a4.324,4.324,0,1,0-8.237-2.638l-9.192,28.829A4.324,4.324,0,0,0,88.85,144.9l-1.332,4.159a5.565,5.565,0,1,0,10.606,3.378l4.616-14.455L138.5,149.4l-4.616,14.455a5.574,5.574,0,0,0,10.619,3.392l1.332-4.159a4.324,4.324,0,0,0,8.237,2.638l9.192-28.829A4.325,4.325,0,0,0,160.465,131.458Z" transform="translate(-80.407 -44.617)" fill="#5063ee"/>
        </g>
        <g id="Group_331" data-name="Group 331" transform="translate(0 318.904)">
          <g id="Group_325" data-name="Group 325" transform="translate(0 142)">
            <path id="Path_991" data-name="Path 991" d="M212.351,479.807c-10.713-2.826-24.347-9.879-36.137-15.424A376.2,376.2,0,0,1,106.658,421.7c-15.357-11.871-31.1-28.654-38.344-47.039-3.472-8.829-6.353-23.19.067-31.44,15.653-20.081,57.443,12.18,69.085,23.351,31.628,30.35,58.815,72.072,74.885,113.23Z" transform="translate(-64.565 -336.783)" fill="#5063ee"/>
            <path id="Path_992" data-name="Path 992" d="M96.933,339.315l-.821-.484c-.081.148-8.035,13.957-7.618,27.2-12.342-14.145-19.717-23.513-19.933-23.809l-.754.592c.229.283,7.524,9.569,19.758,23.607-13.5-4.589-22.073-2.921-22.436-2.84l.2.942c.094-.013,9.367-1.844,23.513,3.351,8.641,9.865,19.569,21.9,32.113,34.737-23.822-10.4-42.517-10.861-42.705-10.861l-.013.956c.188,0,19.825.471,44.482,11.736l.054.027c9.556,9.717,20,19.852,31.036,29.825-25.908-9.367-40.511-8.681-40.659-8.681l.054.956c.148-.013,15.37-.727,42.49,9.435h.013c8.614,7.712,17.564,15.289,26.729,22.476-20.538-7.214-30.565-7.806-30.659-7.82l-.054.956c.108,0,10.861.633,33.109,8.735,8.883,6.864,17.941,13.338,27.066,19.179l.511-.808c-9.112-5.828-18.156-12.3-27.026-19.166-7.7-14.159-2.059-37.12-2.005-37.348l-.929-.229c-.054.229-5.33,21.7,1.211,36.245-9.394-7.349-18.587-15.114-27.416-23.015-7.537-21.548,4.307-43.916,4.428-44.145l-.834-.458c-.121.215-11.575,21.884-5.007,43.324C143.6,423.81,132.976,413.5,123.273,403.621c-6.164-15.114,7.6-43.122,7.739-43.4l-.848-.431c-.565,1.117-13.028,26.487-8.452,42.234-12.571-12.88-23.54-24.953-32.194-34.832C88.548,353.89,96.853,339.449,96.933,339.315Z" transform="translate(-64.37 -336.075)" fill="#9b9b9b"/>
          </g>
          <g id="Group_327" data-name="Group 327" transform="translate(26.066)">
            <path id="Path_993" data-name="Path 993" d="M112.765,353s-11.05-8.3-19.165-11.75c0,0,34.388,87.7,97.214,127.537l.363-5.437-33.93-71.6Z" transform="translate(-80.588 -193.237)" fill="#c1c1c1" opacity="0.5"/>
            <g id="Group_326" data-name="Group 326">
              <path id="Path_994" data-name="Path 994" d="M206.89,518.037c-1.709-7.241-17.645-21.386-23.122-28.264a837.64,837.64,0,0,1-50.457-69.583c-25.168-39.139-50.982-92.328-49.3-140.053.619-17.645,7.254-47.4,29.327-48.815,16.487-1.063,29.663,16.837,37.443,29.354,20.431,32.894,30.283,71.373,38.869,108.735,9.865,42.947,15.76,87.093,21.9,130.874Z" transform="translate(-83.932 -231.276)" fill="#5063ee"/>
              <path id="Path_995" data-name="Path 995" d="M185.167,458.791c-.686-38.641,10.4-64.118,10.525-64.361l-1.292-.565c-.108.256-10.713,24.563-10.673,61.709-6.958-15.626-13.351-30.686-19.179-45.074,4.132-52.382,17.968-71.1,18.1-71.292l-1.117-.861c-.565.74-13.728,18.519-18.143,69.246-7.672-19.031-14.388-36.877-20.242-53.365,1.736-47.887,19.26-72.167,19.435-72.409l-1.131-.834c-.175.242-17.093,23.674-19.556,69.717-7.214-20.484-13.069-38.789-17.779-54.522-2.786-36.8,11.413-55.02,11.548-55.195l-1.1-.888c-.135.175-13.149,16.837-12.167,50.282-10.686-36.514-14.738-57.725-14.832-58.21l-1.386.256c.094.5,4.415,23.136,15.908,61.911-5.653-5.3-23.1-20.659-37.5-23.042l-.229,1.386c16.46,2.719,37.887,23.755,38.546,24.4,4.684,15.666,10.525,33.836,17.672,54.159-5.733-6.218-21.938-20.834-50.686-25.2l-.215,1.4c36.043,5.478,52.005,27.241,52.167,27.456l.067.108c5.787,16.272,12.409,33.863,19.946,52.611-5.424-5.1-19.973-16.191-47.025-19.865l-.188,1.4c34.791,4.724,48.492,21.79,48.627,21.965l.013.027q8.156,20.128,17.766,41.9c-4.576-4.1-14.24-9.637-34.616-14.172l-.31,1.373c27.295,6.083,34.845,13.917,36.891,17.241q11.023,24.69,24.024,51.184l1.265-.619Q195.806,482.593,185.167,458.791Z" transform="translate(-83.784 -230.967)" fill="#9b9b9b"/>
            </g>
          </g>
          <g id="Group_328" data-name="Group 328" transform="translate(354.662 47.623)">
            <path id="Path_996" data-name="Path 996" d="M335.291,460.41c-3.055-10.646-3.97-25.976-5.249-38.937a376.822,376.822,0,0,1,1.063-81.6c2.342-19.273,8.694-41.386,20.794-57.012,5.814-7.51,16.676-17.335,27.052-16.03,25.249,3.176,18.937,55.585,15.289,71.305-9.879,42.692-31.817,87.4-58.95,122.274Z" transform="translate(-327.996 -266.642)" fill="#5063ee"/>
            <path id="Path_997" data-name="Path 997" d="M396.505,289.9v-.956c-.161,0-16.11.242-27.254,7.376,5.828-17.833,10.108-28.964,10.242-29.314l-.888-.35c-.135.336-4.374,11.373-10.161,29.058-2.961-13.943-8.789-20.458-9.044-20.727l-.7.646c.067.067,6.38,7.106,9.152,21.925-4.051,12.463-8.8,28.021-13.419,45.357-3.257-25.787-12.436-42.086-12.517-42.247l-.834.471c.094.175,9.731,17.268,12.678,44.213v.067c-3.459,13.176-6.824,27.349-9.731,41.924-5.222-27.052-13.27-39.246-13.351-39.367l-.794.538c.081.121,8.493,12.826,13.647,41.332v.013c-2.221,11.346-4.145,22.92-5.626,34.468-4.307-21.346-8.937-30.256-8.977-30.35l-.848.444c.054.094,5.02,9.65,9.448,32.92-1.359,11.144-2.275,22.248-2.625,33.055l.956.027c.35-10.807,1.265-21.9,2.625-33.028,8.223-13.863,30.834-20.767,31.063-20.834l-.269-.915c-.229.067-21.373,6.528-30.525,19.583,1.494-11.83,3.472-23.7,5.747-35.33,14.657-17.5,39.933-18.775,40.188-18.789l-.04-.956c-.256.013-24.724,1.252-39.771,17.873,2.948-14.832,6.366-29.233,9.892-42.624,9.825-13.028,40.942-15.532,41.252-15.559l-.067-.956c-1.252.094-29.421,2.369-40.606,14.361,4.63-17.389,9.381-32.988,13.445-45.478C379.695,290.159,396.344,289.9,396.505,289.9Z" transform="translate(-328.08 -266.66)" fill="#9b9b9b"/>
          </g>
          <g id="Group_330" data-name="Group 330" transform="translate(362.778 21.402)">
            <path id="Path_998" data-name="Path 998" d="M389.221,275.29s5.707,14.091,5.707,28.91L339.894,452.732l-.4-40.929C339.477,411.817,349.423,339.152,389.221,275.29Z" transform="translate(-332.249 -237.454)" fill="#c1c1c1" opacity="0.5"/>
            <g id="Group_329" data-name="Group 329">
              <path id="Path_999" data-name="Path 999" d="M334.63,506.211c0-16.366,4.953-38.506,8.425-57.429a556.537,556.537,0,0,1,34.791-115.451c11.184-26.406,29.233-55.235,52.786-72.49,11.319-8.291,30.74-17.82,44.953-11.736,34.576,14.791,4.24,86.648-7.362,107.51-31.48,56.581-80.848,111.157-133.593,149.6Z" transform="translate(-333.93 -247.178)" fill="#5063ee"/>
              <path id="Path_1000" data-name="Path 1000" d="M491.149,288.583l.377-1.359c-.229-.067-22.974-6.218-41.723-.633,15.559-22.947,26.178-37.012,26.5-37.443l-1.131-.848c-.323.431-10.834,14.361-26.285,37.12,1.48-21.009-4.145-32.624-4.388-33.136l-1.265.633c.067.121,6.164,12.692,4.051,34.859-10.834,16.056-23.916,36.2-37.537,58.95,5.9-37.954-.5-64.832-.565-65.114l-1.373.336c.067.283,6.783,28.493-.013,67.968l-.013.094c-10.3,17.308-20.834,36.056-30.915,55.572,3.62-40.552-2.853-61.144-2.921-61.359l-1.346.431c.067.215,6.824,21.682,2.53,64.253v.027c-7.766,15.209-15.235,30.848-22.046,46.649,2.584-32.059-.35-46.608-.377-46.756l-1.386.283c.027.161,3.19,15.76-.013,50.592-6.46,15.276-12.3,30.659-17.2,45.881l1.346.431c4.9-15.208,10.727-30.579,17.187-45.828,17.335-16.326,52.261-16.918,52.611-16.931l-.013-1.413c-.336,0-33.015.565-51.332,15.37,6.958-16.2,14.589-32.248,22.557-47.833,27.941-18.869,64.374-10.39,64.737-10.3l.336-1.373c-.363-.094-35.612-8.3-63.782,9.166,10.229-19.865,20.956-38.923,31.413-56.5,19.26-14.5,64.468-5.37,64.926-5.276l.283-1.386c-1.817-.377-42.745-8.627-63.526,3.836,13.661-22.813,26.783-43.028,37.645-59.112C467.151,282.082,490.906,288.515,491.149,288.583Z" transform="translate(-334.11 -246.79)" fill="#9b9b9b"/>
            </g>
          </g>
        </g>
        <g id="Group_411" data-name="Group 411" transform="translate(75.982)">
          <ellipse id="Ellipse_64" data-name="Ellipse 64" cx="132.153" cy="15.451" rx="132.153" ry="15.451" transform="translate(41.44 603.726)" fill="#c1c1c1"/>
          <g id="Group_410" data-name="Group 410">
            <g id="Group_409" data-name="Group 409">
              <g id="Group_334" data-name="Group 334" transform="translate(60.78 130.861)">
                <g id="Group_332" data-name="Group 332">
                  <path id="Path_1001" data-name="Path 1001" d="M400.984,571.639a6.749,6.749,0,0,1-6.729,6.729H172.909a6.749,6.749,0,0,1-6.729-6.729V98.289a6.749,6.749,0,0,1,6.729-6.729H394.255a6.749,6.749,0,0,1,6.729,6.729Z" transform="translate(-166.18 -91.56)" fill="#0e263f"/>
                </g>
                <rect id="Rectangle_85" data-name="Rectangle 85" width="225.841" height="399.326" transform="translate(4.482 30.659)" fill="#d6e7f2"/>
                <g id="Group_333" data-name="Group 333" transform="translate(102.449 442.946)">
                  <circle id="Ellipse_65" data-name="Ellipse 65" cx="14.953" cy="14.953" r="14.953" fill="#d6e7f2"/>
                  <path id="Path_1002" data-name="Path 1002" d="M267.753,434.15c0,6.3-22.813,6.3-22.813,0a11.406,11.406,0,0,1,22.813,0Z" transform="translate(-241.387 -419.951)" fill="#95b3c6" opacity="0.5"/>
                </g>
                <path id="Path_1003" data-name="Path 1003" d="M169.51,567.6V97.24H395.351Z" transform="translate(-165.028 -89.595)" fill="#fff" opacity="0.4"/>
              </g>
              <g id="Group_408" data-name="Group 408">
                <g id="Group_392" data-name="Group 392">
                  <g id="Group_335" data-name="Group 335" transform="translate(0 0)" clip-path="url(#clip-path)">
                    <path id="Path_1004" data-name="Path 1004" d="M270.766,409.707c4.724,44.953,24.832,154.683,29.583,168.748,17.645,52.369,25.895,150.969,25.895,150.969s1.265,2.826,20.269,3.432c18.9.606,22.934-4.455,22.934-4.455s1.332-17.349,1.413-46.164c0-54.387-9.112-118.815-9.112-129.219,0-70.605-2.288-133.162-6.393-213.553,0,0-87.16-.215-160.74-.215a1930.382,1930.382,0,0,0-3.122,203.418c2.773,78.479,27.268,129.879,29.583,187.779.31,6.285,39.313,7.537,39.529.242,0,0-2.476-95.572-12.328-161.359Z" transform="translate(-97.106 124.975)" fill="#95b3c6"/>
                  </g>
                  <g id="Group_336" data-name="Group 336" transform="translate(0 0)" clip-path="url(#clip-path)">
                    <path id="Path_1005" data-name="Path 1005" d="M192.91,345.6c8.4,11.817,55.693,18.048,76.527,18.048s74.037-3.419,85.235-16.487l-.269-7.214-75.02-2.126-85.72,1.9Z" transform="translate(-96.154 124.48)" fill="#c1c1c1" opacity="0.4"/>
                  </g>
                  <g id="Group_337" data-name="Group 337" transform="translate(0 0)" clip-path="url(#clip-path-3)">
                    <rect id="Rectangle_88" data-name="Rectangle 88" width="165.545" height="273.216" transform="translate(96.877 200.094)" fill="#5063ee"/>
                  </g>
                  <g id="Group_338" data-name="Group 338" transform="translate(0 0)" clip-path="url(#clip-path)">
                    <path id="Path_1006" data-name="Path 1006" d="M217.983,92.143c.983,7.4,6.729,16.891,12.221,14.038,4.428-2.3,8.156-6.151,7.174-13.553s-4.859-11.036-10.74-12.221C220.3,79.128,217.014,84.741,217.983,92.143Z" transform="translate(-87.539 35.38)" fill="#f29a86"/>
                  </g>
                  <g id="Group_339" data-name="Group 339" transform="translate(0 0)" clip-path="url(#clip-path)">
                    <path id="Path_1007" data-name="Path 1007" d="M219.24,82.811c1.184-1.467,7.537-2.261,9.367,3.311l-.686-5.249a8.347,8.347,0,0,0-4.468-.579A5.747,5.747,0,0,0,219.24,82.811Z" transform="translate(-87.047 35.372)" fill="#ffaf99"/>
                  </g>
                  <g id="Group_340" data-name="Group 340" transform="translate(0 0)" clip-path="url(#clip-path)">
                    <path id="Path_1008" data-name="Path 1008" d="M293.957,92.143c-.983,7.4-6.729,16.891-12.221,14.038-4.428-2.3-8.156-6.151-7.187-13.553s4.872-11.036,10.754-12.221C291.643,79.128,294.94,84.741,293.957,92.143Z" transform="translate(-67.969 35.38)" fill="#f29a86"/>
                  </g>
                  <g id="Group_341" data-name="Group 341" transform="translate(0 0)" clip-path="url(#clip-path)">
                    <path id="Path_1009" data-name="Path 1009" d="M290.051,82.811c-1.184-1.467-7.537-2.261-9.381,3.311l.673-5.249a8.347,8.347,0,0,1,4.468-.579A5.8,5.8,0,0,1,290.051,82.811Z" transform="translate(-65.798 35.372)" fill="#ffaf99"/>
                  </g>
                  <g id="Group_342" data-name="Group 342" transform="translate(0 0)" clip-path="url(#clip-path)">
                    <path id="Path_1010" data-name="Path 1010" d="M290.3,115.427c-2.328,8.1.35,30.807.888,35.357,2.692.363,12.382,5.68,15.182,6.689-1.319,8.156-12.449,29.986-39.367,29.986s-43.176-19.812-44.912-26.945c5.68-2.248,12.275-9.125,15.787-9.637,0-.013,4.361-22.207,1.534-35.518Z" transform="translate(-86.061 47.533)" fill="#ffaf99"/>
                  </g>
                  <g id="Group_343" data-name="Group 343" transform="translate(0 0)" clip-path="url(#clip-path)">
                    <path id="Path_1011" data-name="Path 1011" d="M285.681,116.33a51.777,51.777,0,0,0-.74,10.808s-14.6,15.72-24.993,15.72-24.024-14.509-24.024-14.509.108-9.179-1.063-13.5Z" transform="translate(-81.644 47.357)" fill="#f29a86"/>
                  </g>
                  <g id="Group_344" data-name="Group 344" transform="translate(0 0)" clip-path="url(#clip-path)">
                    <path id="Path_1012" data-name="Path 1012" d="M225.7,88.172a37.322,37.322,0,0,0,74.643,0c0-27.672-16.716-40.982-37.322-40.982S225.7,61.08,225.7,88.172Z" transform="translate(-84.812 23.954)" fill="#ffaf99"/>
                  </g>
                  <g id="Group_345" data-name="Group 345" transform="translate(0 0)" clip-path="url(#clip-path)">
                    <path id="Path_1013" data-name="Path 1013" d="M225.7,77.64c0,19.96,0,36.676,7.6,47.523,4.589,6.541,16.487,17.766,25.114,20.619,2.14.7,8.277.35,10.417-.4,8.546-3.028,19.529-13.97,23.9-20.2,7.618-10.848,7.618-27.564,7.618-47.523" transform="translate(-84.812 34.486)" fill="#ffaf99"/>
                  </g>
                  <g id="Group_346" data-name="Group 346" transform="translate(0 0)" clip-path="url(#clip-path)">
                    <path id="Path_1014" data-name="Path 1014" d="M236.59,89.251c0,3.392,2.032,6.151,4.563,6.151s4.563-2.759,4.563-6.151-2.046-6.151-4.563-6.151S236.59,85.846,236.59,89.251Z" transform="translate(-81.045 36.375)" fill="#0e263f"/>
                  </g>
                  <g id="Group_347" data-name="Group 347" transform="translate(0 0)" clip-path="url(#clip-path)">
                    <path id="Path_1015" data-name="Path 1015" d="M262.83,89.251c0,3.392,2.046,6.151,4.563,6.151s4.563-2.759,4.563-6.151-2.046-6.151-4.563-6.151S262.83,85.846,262.83,89.251Z" transform="translate(-71.969 36.375)" fill="#0e263f"/>
                  </g>
                  <g id="Group_348" data-name="Group 348" transform="translate(0 0)" clip-path="url(#clip-path)">
                    <path id="Path_1016" data-name="Path 1016" d="M248.41,77.455s-.242.027-.66.054-1.009.094-1.723.148-1.534.148-2.423.229c-.875.135-1.83.188-2.759.336s-1.871.229-2.746.417-1.709.229-2.4.4c-1.386.3-2.369.417-2.369.417h-.04a.4.4,0,0,1-.444-.35.389.389,0,0,1,.215-.4s.875-.458,2.248-1.036a17.318,17.318,0,0,1,2.423-.74,21,21,0,0,1,2.853-.525c.982-.148,1.965-.162,2.894-.215.929.013,1.79.013,2.53.094s1.346.162,1.777.229a5.727,5.727,0,0,1,.66.135h.013a.4.4,0,0,1,.269.5A.334.334,0,0,1,248.41,77.455Z" transform="translate(-82.34 33.985)" fill="#0e263f"/>
                  </g>
                  <g id="Group_349" data-name="Group 349" transform="translate(0 0)" clip-path="url(#clip-path)">
                    <path id="Path_1017" data-name="Path 1017" d="M262.89,76.661a5.722,5.722,0,0,1,.659-.135c.431-.067,1.05-.162,1.777-.215s1.6-.067,2.53-.081c.915.054,1.911.067,2.894.215a20.637,20.637,0,0,1,2.853.511,16.345,16.345,0,0,1,2.423.727c1.386.565,2.261,1.009,2.261,1.009a.41.41,0,0,1,.175.538.38.38,0,0,1-.4.215h-.04s-.969-.135-2.355-.444c-.686-.175-1.521-.242-2.4-.417s-1.817-.269-2.746-.417-1.884-.2-2.759-.336c-.888-.067-1.709-.162-2.423-.215s-1.306-.121-1.723-.135-.659-.054-.659-.054A.407.407,0,0,1,262.58,77a.4.4,0,0,1,.31-.336Z" transform="translate(-72.056 33.998)" fill="#0e263f"/>
                  </g>
                  <g id="Group_350" data-name="Group 350" transform="translate(0 0)" clip-path="url(#clip-path)">
                    <path id="Path_1018" data-name="Path 1018" d="M261.733,102.586c-2.4-1.131-11-1.211-13.042,0s4.307,2.84,6.514,2.84S263.645,103.636,261.733,102.586Z" transform="translate(-76.996 42.811)" fill="#f29a86"/>
                  </g>
                  <g id="Group_351" data-name="Group 351" transform="translate(0 0)" clip-path="url(#clip-path)">
                    <path id="Path_1019" data-name="Path 1019" d="M271.779,108.8c-7.752,2.894-20.215,3.97-27.725,3.957-.929,0-1.265.188-.027.565,2.18.646,9.219,7.752,14.778,7.133s11.642-9.879,13.338-11.211C272.856,108.67,272.479,108.535,271.779,108.8Z" transform="translate(-78.751 45.22)" fill="#fff"/>
                  </g>
                  <g id="Group_352" data-name="Group 352" transform="translate(0 0)" clip-path="url(#clip-path)">
                    <path id="Path_1020" data-name="Path 1020" d="M256.8,288.041c-4.9,7.806-17.308,8.843-27.712,2.3s-14.859-18.156-9.96-25.976,17.308-8.842,27.712-2.3S261.7,280.235,256.8,288.041Z" transform="translate(-87.773 96.789)" fill="#afc8d8"/>
                  </g>
                  <g id="Group_353" data-name="Group 353" transform="translate(0 0)" clip-path="url(#clip-path)">
                    <path id="Path_1021" data-name="Path 1021" d="M218.62,265.8l7.5-12.14,37.106,23.97-7.793,13.042-28.91-9.34Z" transform="translate(-87.261 95.37)" fill="#afc8d8"/>
                  </g>
                  <g id="Group_354" data-name="Group 354" transform="translate(0 0)" clip-path="url(#clip-path)">
                    <path id="Path_1022" data-name="Path 1022" d="M261.659,279.586c-4.9,7.806-17.254,8.869-27.6,2.382s-14.751-18.089-9.838-25.895,17.268-8.869,27.6-2.382S266.572,271.78,261.659,279.586Z" transform="translate(-86.02 93.912)" fill="#d6e7f2"/>
                  </g>
                  <g id="Group_355" data-name="Group 355" transform="translate(0 0)" clip-path="url(#clip-path)">
                    <path id="Path_1023" data-name="Path 1023" d="M259.766,247.155s-13.809-5.653-13.069-16.42c.417-6,5.572.538,11.157,4.213,8.21,5.4,13.405,7.82,19.287,21.75l-12.449-.054Z" transform="translate(-77.559 86.599)" fill="#ffaf99"/>
                  </g>
                  <g id="Group_356" data-name="Group 356" transform="translate(0 0)" clip-path="url(#clip-path)">
                    <path id="Path_1024" data-name="Path 1024" d="M278.492,230.447l-12.167-7.927-31.925,49,.027.013a7.2,7.2,0,0,0-1.2,3.984,7.245,7.245,0,0,0,13.526,3.634Z" transform="translate(-82.208 84.599)" fill="#95b3c6"/>
                  </g>
                  <g id="Group_357" data-name="Group 357" transform="translate(0 0)" clip-path="url(#clip-path)">
                    <path id="Path_1025" data-name="Path 1025" d="M281.85,263.044c2.423,1.952,30.2,15.276,30.2,15.276,10.754,5.4,38.439,15.168,38.439,15.168s-20.659-44.562-20.659-67.887c0-16.891,45.572-15.868,45.572-15.868s17.066,90.054,18.008,109.582c.4,8.371-10.673,26.11-19.139,25.141-29.946-3.405-103.257-57.025-107.981-59.152-2.194-.982-28.493-.054-32.167-13.836-5.2-9.367,13.163-30.04,19.771-25.814-1.454,2.046-2.153,6.8,1.615,9.287,3.836,2.544,8.358,2.019,10.215-.834" transform="translate(-82.214 80.172)" fill="#ffaf99"/>
                  </g>
                  <g id="Group_358" data-name="Group 358" transform="translate(0 0)" clip-path="url(#clip-path)">
                    <path id="Path_1026" data-name="Path 1026" d="M282.633,246.448c-4.9,7.806-17.308,8.842-27.712,2.3s-14.859-18.156-9.96-25.962,17.308-8.842,27.712-2.3S287.546,238.642,282.633,246.448Z" transform="translate(-78.838 82.407)" fill="#afc8d8"/>
                  </g>
                  <g id="Group_359" data-name="Group 359" transform="translate(0 0)" clip-path="url(#clip-path)">
                    <path id="Path_1027" data-name="Path 1027" d="M244.46,224.21l7.483-12.14,37.106,23.97-7.793,13.028-28.91-9.327Z" transform="translate(-78.323 80.984)" fill="#afc8d8"/>
                  </g>
                  <g id="Group_360" data-name="Group 360" transform="translate(0 0)" clip-path="url(#clip-path)">
                    <path id="Path_1028" data-name="Path 1028" d="M287.5,238c-4.9,7.806-17.254,8.869-27.6,2.382s-14.751-18.089-9.838-25.895,17.268-8.869,27.6-2.369S292.4,230.189,287.5,238Z" transform="translate(-77.083 79.527)" fill="#d6e7f2"/>
                  </g>
                  <g id="Group_361" data-name="Group 361" transform="translate(0 0)" clip-path="url(#clip-path)">
                    <path id="Path_1029" data-name="Path 1029" d="M314.641,263.776c-3.1-9-2.369-21.48,4.684-21.9s26.958-2.907,34.213-19.085L352.5,218.85,305.61,231.555C305.623,231.569,309.338,254.557,314.641,263.776Z" transform="translate(-57.172 83.329)" fill="#f29a86"/>
                  </g>
                  <g id="Group_362" data-name="Group 362" transform="translate(0 0)" clip-path="url(#clip-path)">
                    <path id="Path_1030" data-name="Path 1030" d="M321.988,161.44c12.611,13.042,27.537,34.643,33.741,73.688.108,14.7-38.735,23.1-47.564,16.312-3.244-12.678-9.906-52.409-9.906-52.409l23.728-37.591" transform="translate(-59.714 63.472)" fill="#5063ee"/>
                  </g>
                  <g id="Group_363" data-name="Group 363" transform="translate(0 0)" clip-path="url(#clip-path)">
                    <path id="Path_1031" data-name="Path 1031" d="M234.454,247.83c-.619,5.4,4.145,13.486,11.817,14.724a29.2,29.2,0,0,1-8.358-6.851A16.553,16.553,0,0,1,234.454,247.83Z" transform="translate(-81.803 93.353)" fill="#f29a86"/>
                  </g>
                  <g id="Group_364" data-name="Group 364" transform="translate(0 0)" clip-path="url(#clip-path)">
                    <path id="Path_1032" data-name="Path 1032" d="M236.874,243.67c-.619,5.4,4.145,13.486,11.817,14.724a29.205,29.205,0,0,1-8.358-6.851A16.723,16.723,0,0,1,236.874,243.67Z" transform="translate(-80.966 91.915)" fill="#f29a86"/>
                  </g>
                  <g id="Group_365" data-name="Group 365" transform="translate(0 0)" clip-path="url(#clip-path)">
                    <path id="Path_1033" data-name="Path 1033" d="M159.4,370.38c-2.49,4.818-.888,14.078,5.841,17.954a28.949,28.949,0,0,1-5.384-9.367A16.539,16.539,0,0,1,159.4,370.38Z" transform="translate(-108.126 135.742)" fill="#f29a86"/>
                  </g>
                  <g id="Group_366" data-name="Group 366" transform="translate(0 0)" clip-path="url(#clip-path)">
                    <path id="Path_1034" data-name="Path 1034" d="M154.068,371.08c-2.49,4.818.377,12.732,7.12,16.622a17.125,17.125,0,0,1-5.908-8.1A25.546,25.546,0,0,1,154.068,371.08Z" transform="translate(-109.896 135.984)" fill="#f29a86"/>
                  </g>
                  <g id="Group_367" data-name="Group 367" transform="translate(0 0)" clip-path="url(#clip-path)">
                    <path id="Path_1035" data-name="Path 1035" d="M150.087,371.98c-.35,3.661-.215,9.8,6.406,13.876a13.392,13.392,0,0,1-5.007-7.376A37.5,37.5,0,0,1,150.087,371.98Z" transform="translate(-111.003 136.296)" fill="#f29a86"/>
                  </g>
                  <g id="Group_368" data-name="Group 368" transform="translate(0 0)" clip-path="url(#clip-path)">
                    <path id="Path_1036" data-name="Path 1036" d="M240.234,239.91c-.619,5.4,4.145,13.486,11.817,14.724a29.016,29.016,0,0,1-8.358-6.851A16.722,16.722,0,0,1,240.234,239.91Z" transform="translate(-79.804 90.614)" fill="#f29a86"/>
                  </g>
                  <g id="Group_369" data-name="Group 369" transform="translate(0 0)" clip-path="url(#clip-path)">
                    <text id="_1" data-name="1" transform="matrix(0.658, -0.753, 0.753, 0.658, 192.829, 312.754)" fill="#919191" font-size="23" font-family="SegoeUI, Segoe UI"><tspan x="0" y="0">1</tspan></text>
                  </g>
                  <g id="Group_370" data-name="Group 370" transform="translate(0 0)" clip-path="url(#clip-path)">
                    <path id="Path_1037" data-name="Path 1037" d="M281.519,89.34s2.692,3,2.288,4.67-3.217,3.943-3.217,3.943Z" transform="translate(-65.826 38.533)" fill="#ffaf99"/>
                  </g>
                  <g id="Group_371" data-name="Group 371" transform="translate(0 0)" clip-path="url(#clip-path)">
                    <path id="Path_1038" data-name="Path 1038" d="M226.356,89.34s-2.692,3-2.275,4.67,3.217,3.943,3.217,3.943Z" transform="translate(-85.387 38.533)" fill="#ffaf99"/>
                  </g>
                  <g id="Group_372" data-name="Group 372" transform="translate(0 0)" clip-path="url(#clip-path)">
                    <path id="Path_1039" data-name="Path 1039" d="M263.824,66.465c5.3,0,9.771-2.248,15.37-3.634,10.013-2.476,14.845,8.277,14.845,8.277,5.733,9.435,4.522,38.99,4.59,40.686s2.369,1.925,2.423,0c0,0,3.9-22.423,3.526-34.4C304.08,61.525,298.6,41.7,278.2,45.98c-15.532-17.483-38.371-1.8-53.3-8.21-.808-.35-1.763.713-1.467,1.629,4.145,12.921,4.953,19.1,2.328,35.935-2.382,15.3.821,32.059.821,35.949,0,2.234,2.5,1.952,2.5-.081,0-3.149-.929-34.145,4.953-42.92C241.16,57.676,258.683,66.465,263.824,66.465Z" transform="translate(-85.615 20.561)" fill="#0e263f"/>
                  </g>
                  <g id="Group_373" data-name="Group 373" transform="translate(0)" clip-path="url(#clip-path)">
                    <line id="Line_12" data-name="Line 12" x2="4.859" y2="106.056" transform="translate(252.22 468.868)" fill="none" stroke="#fff" stroke-miterlimit="10" stroke-width="1"/>
                  </g>
                  <g id="Group_374" data-name="Group 374" clip-path="url(#clip-path)">
                    <line id="Line_13" data-name="Line 13" x2="4.738" y2="105.316" transform="translate(247.725 469.608)" fill="none" stroke="#fff" stroke-miterlimit="10" stroke-width="1"/>
                  </g>
                  <g id="Group_375" data-name="Group 375" transform="translate(0 0)" clip-path="url(#clip-path-41)">
                    <line id="Line_14" data-name="Line 14" x1="5.316" y2="107.658" transform="translate(98.089 467.267)" fill="none" stroke="#fff" stroke-miterlimit="10" stroke-width="1"/>
                  </g>
                  <g id="Group_376" data-name="Group 376" transform="translate(0 0)" clip-path="url(#clip-path)">
                    <line id="Line_15" data-name="Line 15" x1="4.926" y2="106.998" transform="translate(102.692 467.926)" fill="none" stroke="#fff" stroke-miterlimit="10" stroke-width="1"/>
                  </g>
                  <g id="Group_377" data-name="Group 377" transform="translate(0 0)" clip-path="url(#clip-path-41)">
                    <rect id="Rectangle_129" data-name="Rectangle 129" width="226.083" height="119.394" transform="translate(65.02 443.686)" fill="url(#linear-gradient)"/>
                  </g>
                  <g id="Group_378" data-name="Group 378" transform="translate(0 0)" clip-path="url(#clip-path)">
                    <path id="Path_1040" data-name="Path 1040" d="M174.929,397.235c11.117,12.234,6.016,26.245,6.366,36.07.242,6.676,3.163,14.468-2.18,11.723-9.6-4.953-6.218-21.332-6.218-21.332a5.968,5.968,0,0,0-3.392,5.518c-.242,7.227,1.279,14.616,4.859,14.347.229,7.846-18.062,3.311-21.467-.3-8.062-8.533-6.5-35.128-6.218-37.51.619-5.155,2.153-19.771,2.153-19.771,2.786-24.388,11.265-94.4,16.137-118.1,6.178-30.04,18.4-65.8,18.4-65.8l36.5-3.661L217.2,237.855s-.834,20.256-24.091,54.212C192.3,324.436,171.147,377.545,174.929,397.235Z" transform="translate(-112.251 76.263)" fill="#ffaf99"/>
                  </g>
                  <g id="Group_379" data-name="Group 379" transform="translate(0 0)" clip-path="url(#clip-path)">
                    <path id="Path_1041" data-name="Path 1041" d="M147.45,347.431a6.105,6.105,0,0,0,4.145,0c2.073-.834,5.168-2.974,5.747-5.007l16.649.444.2-1.655L156.05,339.45l-3.943,3.217-4.5,2.53Z" transform="translate(-111.878 125.044)" fill="#f29a86"/>
                  </g>
                  <g id="Group_380" data-name="Group 380" transform="translate(0 0)" clip-path="url(#clip-path)">
                    <path id="Path_1042" data-name="Path 1042" d="M172.32,343.04l-19.26-1.359.633-8.291,19.26,1.359Z" transform="translate(-109.938 122.948)" fill="#153556"/>
                  </g>
                  <g id="Group_381" data-name="Group 381" transform="translate(0 0)" clip-path="url(#clip-path)">
                    <path id="Path_1043" data-name="Path 1043" d="M168.949,338.626c-.175,2.288-.794,4.118-1.386,4.065s-.915-1.938-.74-4.226.794-4.118,1.386-4.065S169.124,336.338,168.949,338.626Z" transform="translate(-105.194 123.297)" fill="#153556"/>
                  </g>
                  <g id="Group_382" data-name="Group 382" transform="translate(0 0)" clip-path="url(#clip-path)">
                    <path id="Path_1044" data-name="Path 1044" d="M155.981,333.54a15.2,15.2,0,0,1,.2,3.782,14.769,14.769,0,0,1-1.063,4.5l16.487,1.157.633-8.291Z" transform="translate(-109.225 123)" fill="none"/>
                    <path id="Path_1045" data-name="Path 1045" d="M156.694,333.6l-3-.215-.633,8.3,2.773.2a14.769,14.769,0,0,0,1.063-4.5A15.275,15.275,0,0,0,156.694,333.6Z" transform="translate(-109.938 122.944)" fill="#153556" opacity="0.5"/>
                  </g>
                  <g id="Group_383" data-name="Group 383" transform="translate(0 0)" clip-path="url(#clip-path)">
                    <path id="Path_1046" data-name="Path 1046" d="M157.071,339.169c-.458,5.908-4.091,10.444-8.116,10.135s-6.918-5.357-6.474-11.265,4.091-10.444,8.116-10.135S157.529,333.26,157.071,339.169Z" transform="translate(-113.612 121.045)" fill="#153556"/>
                  </g>
                  <g id="Group_384" data-name="Group 384" transform="translate(0 0)" clip-path="url(#clip-path)">
                    <path id="Path_1047" data-name="Path 1047" d="M158.218,339.262c-.458,5.908-4.092,10.444-8.116,10.135s-6.918-5.357-6.46-11.265,4.092-10.458,8.116-10.148S158.676,333.354,158.218,339.262Z" transform="translate(-113.212 121.073)" fill="#153556"/>
                  </g>
                  <g id="Group_385" data-name="Group 385" transform="translate(0 0)" clip-path="url(#clip-path)">
                    <path id="Path_1048" data-name="Path 1048" d="M154.74,338.485c-.363,4.778-3.311,8.452-6.554,8.2s-5.6-4.334-5.236-9.112,3.311-8.452,6.554-8.2S155.1,333.707,154.74,338.485Z" transform="translate(-113.448 121.554)" fill="#d6e7f2"/>
                  </g>
                  <g id="Group_386" data-name="Group 386" transform="translate(0 0)" clip-path="url(#clip-path)">
                    <path id="Path_1049" data-name="Path 1049" d="M149.035,336.562c-.108,1.4-.888,2.476-1.736,2.423s-1.454-1.252-1.346-2.651.888-2.476,1.736-2.423S149.143,335.162,149.035,336.562Z" transform="translate(-112.4 123.127)" fill="#153556"/>
                  </g>
                  <g id="Group_387" data-name="Group 387" transform="translate(0 0)" clip-path="url(#clip-path-41)">
                    <line id="Line_16" data-name="Line 16" x1="2.167" y1="5.128" transform="translate(32.934 454.44)" fill="none" stroke="#153556" stroke-linecap="round" stroke-linejoin="round" stroke-miterlimit="10" stroke-width="0.5"/>
                  </g>
                  <g id="Group_388" data-name="Group 388" transform="translate(0 0)" clip-path="url(#clip-path-41)">
                    <line id="Line_17" data-name="Line 17" x2="3.149" y2="1.413" transform="translate(35.101 459.568)" fill="none" stroke="#153556" stroke-linecap="round" stroke-linejoin="round" stroke-miterlimit="10" stroke-width="0.5"/>
                  </g>
                  <g id="Group_389" data-name="Group 389" transform="translate(0 0)" clip-path="url(#clip-path)">
                    <path id="Path_1050" data-name="Path 1050" d="M145.738,346.517l7.254-16.339s-2.638-3-6.581-.31-4.065,8.573-3.58,11.4A11.374,11.374,0,0,0,145.738,346.517Z" transform="translate(-113.545 121.342)" fill="#fff"/>
                  </g>
                  <g id="Group_390" data-name="Group 390" transform="translate(0 0)" clip-path="url(#clip-path)">
                    <path id="Path_1051" data-name="Path 1051" d="M200.121,259.167c3.526-6.635-20.323-8.923-26.756-18.452a33.412,33.412,0,0,1-5.8-19.085l39.206,21.992C206.757,243.622,202.934,253.191,200.121,259.167Z" transform="translate(-104.927 84.291)" fill="#f29a86"/>
                  </g>
                  <g id="Group_391" data-name="Group 391" transform="translate(0 0)" clip-path="url(#clip-path)">
                    <path id="Path_1052" data-name="Path 1052" d="M213.049,158.61c-12.436,9.314-28.237,24.549-44.751,77.793-7.793,25.128,38.237,32.355,40.121,28.237s11.494-33.916,11.494-33.916" transform="translate(-104.974 62.493)" fill="#5063ee"/>
                  </g>
                </g>
                <g id="Group_394" data-name="Group 394" transform="translate(140.786 469.047)">
                  <circle id="Ellipse_66" data-name="Ellipse 66" cx="25.774" cy="25.774" r="25.774" transform="matrix(0.33, -0.944, 0.944, 0.33, 0, 48.666)" fill="#fff" opacity="0.8"/>
                  <g id="Group_393" data-name="Group 393" transform="translate(29.173 22.809)">
                    <line id="Line_18" data-name="Line 18" y2="20.067" transform="translate(7.281)" fill="none" stroke="#153556" stroke-linecap="round" stroke-miterlimit="10" stroke-width="3"/>
                    <line id="Line_19" data-name="Line 19" y2="20.067" fill="none" stroke="#153556" stroke-linecap="round" stroke-miterlimit="10" stroke-width="3"/>
                  </g>
                </g>
                <g id="Group_398" data-name="Group 398" transform="translate(213.283 488.155)">
                  <path id="Path_1053" data-name="Path 1053" d="M306.946,370.758a13.728,13.728,0,1,1-13.728-13.728A13.734,13.734,0,0,1,306.946,370.758Z" transform="translate(-279.49 -357.03)" fill="#fff" opacity="0.8"/>
                  <g id="Group_397" data-name="Group 397" transform="translate(10.256 8.802)">
                    <g id="Group_395" data-name="Group 395" transform="translate(6.097)">
                      <path id="Path_1054" data-name="Path 1054" d="M292.071,373.435a.431.431,0,0,1-.431-.417v-9.031a.431.431,0,0,1,.861,0v9.031A.44.44,0,0,1,292.071,373.435Z" transform="translate(-291.64 -363.57)" fill="#153556"/>
                    </g>
                    <g id="Group_396" data-name="Group 396" transform="translate(0 0.159)">
                      <path id="Path_1055" data-name="Path 1055" d="M293.53,368.347l-6.11,4.347V364Z" transform="translate(-287.003 -363.58)" fill="#153556"/>
                      <path id="Path_1056" data-name="Path 1056" d="M287.527,373.233a.431.431,0,0,1-.188-.04.4.4,0,0,1-.229-.377v-8.708a.416.416,0,0,1,.229-.377.474.474,0,0,1,.444.027l6.1,4.347a.437.437,0,0,1,0,.7l-6.1,4.347A.443.443,0,0,1,287.527,373.233Zm.431-8.3v7.052l4.939-3.526Z" transform="translate(-287.11 -363.688)" fill="#153556"/>
                    </g>
                  </g>
                </g>
                <g id="Group_402" data-name="Group 402" transform="translate(106.514 488.155)">
                  <path id="Path_1057" data-name="Path 1057" d="M200.16,370.758a13.728,13.728,0,1,1,13.728,13.728A13.734,13.734,0,0,1,200.16,370.758Z" transform="translate(-200.16 -357.03)" fill="#fff" opacity="0.8"/>
                  <g id="Group_401" data-name="Group 401" transform="translate(10.242 8.789)">
                    <g id="Group_399" data-name="Group 399" transform="translate(0.013)">
                      <path id="Path_1058" data-name="Path 1058" d="M208.2,363.56a.431.431,0,0,1,.431.417v9.031a.424.424,0,0,1-.848,0v-9.031A.419.419,0,0,1,208.2,363.56Z" transform="translate(-207.78 -363.56)" fill="#153556"/>
                    </g>
                    <g id="Group_400" data-name="Group 400" transform="translate(0 0.175)">
                      <path id="Path_1059" data-name="Path 1059" d="M208.09,368.347l6.1-4.347v8.694Z" transform="translate(-207.659 -363.583)" fill="#153556"/>
                      <path id="Path_1060" data-name="Path 1060" d="M214.3,363.69a.43.43,0,0,1,.188.04.426.426,0,0,1,.229.377V372.8a.442.442,0,0,1-.229.377.474.474,0,0,1-.444-.027l-6.1-4.347a.427.427,0,0,1-.175-.35.446.446,0,0,1,.175-.35l6.1-4.347A.659.659,0,0,1,214.3,363.69Zm-.417,8.291v-7.052l-4.939,3.526Z" transform="translate(-207.77 -363.69)" fill="#153556"/>
                    </g>
                  </g>
                </g>
                <g id="Group_404" data-name="Group 404" transform="translate(82.597 535.772)">
                  <g id="Group_403" data-name="Group 403" transform="translate(0 3.62)">
                    <line id="Line_20" data-name="Line 20" x2="181.964" fill="none" stroke="#d6e7f2" stroke-miterlimit="10" stroke-width="1" opacity="0.5"/>
                    <line id="Line_21" data-name="Line 21" x2="40.565" fill="none" stroke="#c7daea" stroke-miterlimit="10" stroke-width="1"/>
                  </g>
                  <path id="Path_1061" data-name="Path 1061" d="M217.071,396.03a3.62,3.62,0,1,1-3.62-3.62A3.622,3.622,0,0,1,217.071,396.03Z" transform="translate(-172.899 -392.41)" fill="#c7daea"/>
                </g>
                <g id="Group_407" data-name="Group 407" transform="translate(235.639 168.344)">
                  <g id="Group_406" data-name="Group 406" transform="translate(26.42 0.04)">
                    <g id="Group_405" data-name="Group 405" clip-path="url(#clip-path-58)">
                      <path id="Path_1062" data-name="Path 1062" d="M335.128,119.44H317.6a.256.256,0,0,0-.256.256v2.584h-1.386a.241.241,0,0,0-.242.242v4.415a.253.253,0,0,0,.242.256h1.386v2.584a.245.245,0,0,0,.256.242h17.523a.241.241,0,0,0,.242-.242V119.7a.253.253,0,0,0-.242-.256Zm-2.423,7.86h-5.491v-5.128h5.491Z" transform="translate(-315.733 -119.44)" fill="#fff"/>
                    </g>
                  </g>
                  <path id="Path_1063" data-name="Path 1063" d="M313.83,124.861h-.013a3.757,3.757,0,0,0-3.365-5.451,3.735,3.735,0,0,0-3.365,5.451h-.027s.054.094.148.242a2.7,2.7,0,0,0,.161.256c.7,1.144,2.4,3.9,2.665,4.347.336.552.579.417.821.027.188-.31,1.965-3.2,2.678-4.374a2.5,2.5,0,0,0,.148-.256C313.776,124.955,313.83,124.861,313.83,124.861Zm-3.378-3.567a1.884,1.884,0,1,1-1.884,1.884A1.89,1.89,0,0,1,310.452,121.294Z" transform="translate(-292.444 -119.41)" fill="#fff"/>
                  <rect id="Rectangle_146" data-name="Rectangle 146" width="1.117" height="4.145" transform="translate(0 5.653)" stroke-width="1" stroke="#fff" stroke-linecap="round" stroke-linejoin="round" stroke-miterlimit="10" fill="#fff"/>
                  <rect id="Rectangle_147" data-name="Rectangle 147" width="1.117" height="6.945" transform="translate(3.701 2.867)" stroke-width="1" stroke="#fff" stroke-linecap="round" stroke-linejoin="round" stroke-miterlimit="10" fill="#fff"/>
                  <rect id="Rectangle_148" data-name="Rectangle 148" width="1.117" height="9.623" transform="translate(7.456 0.175)" stroke-width="1" stroke="#fff" stroke-linecap="round" stroke-linejoin="round" stroke-miterlimit="10" fill="#fff"/>
                </g>
                <path id="Path_1064" data-name="Path 1064" d="M198.769,140.275a4.71,4.71,0,0,0,2.746-4.266h0a4.7,4.7,0,0,0-2.409-4.1,9.559,9.559,0,0,0-9.542-7.174c-4.993,0-9.125,3.459-9.663,7.9a4.693,4.693,0,0,0,3.257,8.075.333.333,0,0,0,.336-.336v-8.748a.333.333,0,0,0-.336-.336,3.4,3.4,0,0,0-.646.054,7.862,7.862,0,0,1,14.118,0,.343.343,0,0,0-.148.269v8.748a.333.333,0,0,0,.336.336,2.6,2.6,0,0,0,.323-.013A6.621,6.621,0,0,0,198.769,140.275Z" transform="translate(-101.152 50.774)" fill="#fff"/>
              </g>
            </g>
            <path id="Path_1065" data-name="Path 1065" d="M205.071,52.48H155.395A22.344,22.344,0,0,0,133.12,74.755v22.53a22.344,22.344,0,0,0,22.275,22.274h37.079l7.066,9.139a3.19,3.19,0,0,0,5.424-.619l4.078-8.9a22.33,22.33,0,0,0,18.3-21.9V74.768A22.347,22.347,0,0,0,205.071,52.48ZM155.395,92.937a6.144,6.144,0,1,1,6.151-6.151A6.146,6.146,0,0,1,155.395,92.937Zm24.966,0a6.144,6.144,0,1,1,6.151-6.151A6.158,6.158,0,0,1,180.361,92.937Zm24.966,0a6.144,6.144,0,1,1,6.137-6.151A6.158,6.158,0,0,1,205.327,92.937Z" transform="translate(-116.835 25.784)" fill="#5b5b5b"/>
          </g>
        </g>
      </g>
    </g>
  </g>
</svg>
