<?xml version="1.0" encoding="utf-8"?>
<!-- Generator: Adobe Illustrator 24.1.0, SVG Export Plug-In . SVG Version: 6.00 Build 0)  -->
<svg version="1.1" id="Capa_1" xmlns="http://www.w3.org/2000/svg" xmlns:xlink="http://www.w3.org/1999/xlink" x="0px" y="0px"
	 viewBox="0 0 512 512" style="enable-background:new 0 0 512 512;" xml:space="preserve">
<style type="text/css">
	.st0{display:none;}
	.st1{display:inline;}
	.st2{fill:#5063EE;}
	.st3{display:inline;fill:#707070;}
	.st4{display:inline;fill:#5063EE;}
</style>
<g class="st0">
	<g class="st1">
		<path class="st2" d="M437.8,195.4c14.6-14.3,23-33.7,23-54.6c0-42.3-34.5-76.8-76.8-76.8c-14,0-27.8,3.8-39.8,11.1
			c-4,2.4-5.3,7.7-2.9,11.7s7.7,5.3,11.7,2.9c9.4-5.7,20.1-8.7,31-8.7c32.9,0,59.7,26.8,59.7,59.7c0,20.3-10.2,39-27.2,50
			c-14.3,9.4-32.5,12.1-49,7.4c-4.5-1.3-9.2,1.3-10.5,5.9c-1.3,4.5,1.3,9.3,5.9,10.6c6.9,2,14,3,21.2,3c13.4,0,26.4-3.7,37.9-10.3
			c43.8,15.9,73,57.2,73,104.1v42.7h-77.8c-6-57-41.9-106.9-94.2-130.6c16.6-16.9,27-40.1,27-65.7c0-51.8-42.1-93.9-93.9-93.9
			s-93.9,42.1-93.9,93.9c0,25.6,10.3,48.8,27,65.7c-17.6,8-33.9,19.2-47.8,33c-26.5,26.6-42.7,60.8-46.5,97.6H17.1v-42.7
			c0-29.5,11.5-57.4,32.5-78.4c11.5-11.4,25.5-20.2,40.6-25.7c11.5,6.6,24.4,10.2,37.8,10.2c7.2,0,14.3-1,21.2-3
			c4.5-1.3,7.2-6,5.9-10.6c-1.3-4.5-6.1-7.1-10.6-5.9c-16.6,4.7-34.7,2-49.1-7.4c-17-11-27.2-29.7-27.2-50
			c0-32.9,26.8-59.7,59.7-59.7c10.9,0,21.6,3,31,8.7c4.1,2.4,9.3,1.1,11.7-2.9c2.4-4,1.1-9.3-2.9-11.7C155.8,67.8,142,64,128,64
			c-42.3,0-76.8,34.5-76.8,76.8c0,20.9,8.5,40.3,23,54.6c-13.5,6.3-26,15-36.7,25.6C13.3,245.2,0,277.4,0,311.5v51.2
			c0,4.7,3.8,8.5,8.5,8.5h85.3v68.3c0,4.7,3.8,8.5,8.5,8.5h307.2c4.7,0,8.5-3.8,8.5-8.5v-68.3h85.3c4.7,0,8.5-3.8,8.5-8.5v-51.2
			C512,261,482.7,216.1,437.8,195.4z M179.2,157.9c0-42.3,34.4-76.8,76.8-76.8s76.8,34.5,76.8,76.8s-34.5,76.8-76.8,76.8
			S179.2,200.2,179.2,157.9z M401.1,430.9H110.9v-59.7c0-38.7,15.1-75.1,42.4-102.6c14.4-14.3,31.9-25.5,50.6-32.7
			c14.9,9.9,32.8,15.8,52,15.8c19.2,0,37.2-5.8,52.1-15.8c55.8,21.4,93,75.2,93,135.3L401.1,430.9L401.1,430.9z"/>
	</g>
</g>
<g class="st0">
	<path class="st3" d="M76.6,188.6c-35.5,0-64.4,28.9-64.4,64.4s28.9,64.4,64.4,64.4s64.4-28.9,64.4-64.4S112.1,188.6,76.6,188.6z
		 M76.6,301.2c-26.6,0-48.3-21.7-48.3-48.3s21.7-48.3,48.3-48.3s48.3,21.7,48.3,48.3S103.2,301.2,76.6,301.2z"/>
	<path class="st3" d="M430.6,188.6c-35.5,0-64.4,28.9-64.4,64.4s28.9,64.4,64.4,64.4S495,288.5,495,253S466.1,188.6,430.6,188.6z
		 M430.6,301.2c-26.6,0-48.3-21.7-48.3-48.3s21.7-48.3,48.3-48.3s48.3,21.7,48.3,48.3S457.3,301.2,430.6,301.2z"/>
	<path class="st3" d="M253.6,188.6c-35.5,0-64.4,28.9-64.4,64.4s28.9,64.4,64.4,64.4S318,288.5,318,253S289.1,188.6,253.6,188.6z
		 M253.6,301.2c-26.6,0-48.3-21.7-48.3-48.3s21.7-48.3,48.3-48.3s48.3,21.7,48.3,48.3S280.2,301.2,253.6,301.2z"/>
</g>
<g class="st0">
	<path class="st4" d="M258.7,75C155.9,75,72.2,158.7,72.2,261.5S155.9,448,258.7,448s186.5-83.7,186.5-186.5S361.6,75,258.7,75z
		 M258.7,435.6c-96,0-174.1-78.1-174.1-174.1S162.7,87.4,258.7,87.4s174.1,78.1,174.1,174.1S354.7,435.6,258.7,435.6z"/>
	<path class="st4" d="M258.7,112.3c-3.4,0-6.2,2.8-6.2,6.2v143h-93.2c-3.4,0-6.2,2.8-6.2,6.2c0,3.4,2.8,6.2,6.2,6.2h99.5
		c3.4,0,6.2-2.8,6.2-6.2V118.5C264.9,115.1,262.2,112.3,258.7,112.3z"/>
</g>
<g>
	<g>
		<path class="st2" d="M255.5,103c-41.2,0-74.7,33.5-74.7,74.7s33.5,74.7,74.7,74.7s74.7-33.5,74.7-74.7S296.7,103,255.5,103z
			 M255.5,231c-29.4,0-53.3-23.9-53.3-53.3s23.9-53.3,53.3-53.3s53.3,23.9,53.3,53.3S284.9,231,255.5,231z"/>
	</g>
</g>
<g>
	<g>
		<path class="st2" d="M404.8,188.3c-29.4,0-53.3,23.9-53.3,53.3c0,29.4,23.9,53.3,53.3,53.3c29.4,0,53.3-23.9,53.3-53.3
			S434.2,188.3,404.8,188.3z M404.8,273.7c-17.6,0-32-14.4-32-32s14.4-32,32-32s32,14.4,32,32S422.5,273.7,404.8,273.7z"/>
	</g>
</g>
<g>
	<g>
		<path class="st2" d="M107.7,188.3c-29.4,0-53.3,23.9-53.3,53.3c0,29.4,23.9,53.3,53.3,53.3s53.3-23.9,53.3-53.3
			S137.1,188.3,107.7,188.3z M107.7,273.7c-17.6,0-32-14.4-32-32s14.4-32,32-32s32,14.4,32,32S125.3,273.7,107.7,273.7z"/>
	</g>
</g>
<g>
	<g>
		<path class="st2" d="M255.5,273.7c-76.5,0-138.7,62.2-138.7,138.7c0,5.9,4.8,10.7,10.7,10.7c5.9,0,10.7-4.8,10.7-10.7
			c0-64.7,52.6-117.3,117.3-117.3s117.3,52.6,117.3,117.3c0,5.9,4.8,10.7,10.7,10.7s10.7-4.8,10.7-10.7
			C394.2,335.9,332,273.7,255.5,273.7z"/>
	</g>
</g>
<g>
	<g>
		<path class="st2" d="M404.8,316.3c-17.6,0-34.8,4.8-49.7,13.9c-5,3.1-6.6,9.6-3.6,14.7c3.1,5,9.6,6.6,14.7,3.6
			c11.6-7.1,25-10.8,38.7-10.8c41.2,0,74.7,33.5,74.7,74.7c0,5.9,4.8,10.7,10.7,10.7s10.7-4.8,10.7-10.7
			C500.8,359.4,457.8,316.3,404.8,316.3z"/>
	</g>
</g>
<g>
	<g>
		<path class="st2" d="M155.9,330.2c-15-9-32.1-13.8-49.7-13.8c-52.9,0-96,43.1-96,96c0,5.9,4.8,10.7,10.7,10.7s10.7-4.8,10.7-10.7
			c0-41.2,33.5-74.7,74.7-74.7c13.7,0,27,3.7,38.6,10.8c5,3.1,11.6,1.5,14.7-3.6S160.9,333.3,155.9,330.2z"/>
	</g>
</g>
</svg>
