<?xml version="1.0" encoding="iso-8859-1"?>
<!-- Generator: Adobe Illustrator 19.0.0, SVG Export Plug-In . SVG Version: 6.00 Build 0)  -->
<svg version="1.1" id="Capa_1" xmlns="http://www.w3.org/2000/svg" xmlns:xlink="http://www.w3.org/1999/xlink" x="0px" y="0px"
	 viewBox="0 0 512 512" style="enable-background:new 0 0 512 512;" xml:space="preserve">
<g>
	<path style="fill:#FFB69E;" d="M56.243,506.334c-10.424-8.659-11.855-24.128-3.196-34.553l151.22-182.042
		c8.66-10.423,24.13-11.855,34.553-3.195c10.424,8.659,11.855,24.128,3.196,34.553L90.797,503.139
		C82.122,513.58,66.65,514.98,56.243,506.334z"/>
	<path style="fill:#FFB69E;" d="M350.707,511.752c-13.416-1.91-22.744-14.335-20.834-27.751l21.93-154.049h-88.446
		c-13.552,0-24.536-10.983-24.536-24.535s10.985-24.537,24.536-24.537h116.724c14.905,0,26.396,13.211,24.292,27.995
		l-25.916,182.042C376.56,504.244,364.217,513.669,350.707,511.752z"/>
</g>
<g>
	<path style="fill:#3C5A73;" d="M182.281,393.007l59.735-71.91c8.659-10.424,7.228-25.894-3.196-34.553
		c-10.423-8.659-25.893-7.228-34.553,3.195l-58.618,70.565L182.281,393.007z"/>
	<path style="fill:#3C5A73;" d="M358.413,280.881h-95.055c-13.552,0-24.536,10.986-24.536,24.537s10.985,24.535,24.536,24.535
		h87.898L358.413,280.881z"/>
</g>
<path style="fill:#FFB69E;" d="M489.69,106.346c-4.013-10.572-15.838-15.891-26.405-11.877l-67.643,25.669l-88.116-6.527H204.479
	l-88.122,6.527l-67.643-25.67c-10.569-4.012-22.395,1.305-26.405,11.877c-4.012,10.572,1.305,22.394,11.878,26.406l71.935,27.298
	c2.762,1.049,5.778,1.51,8.869,1.269l82.254-6.47v143.748c0,17.317,14.038,31.355,31.355,31.355h37.084
	c27.102,0,49.072-21.97,49.072-49.072v-126.03l82.253,6.47c3.084,0.24,6.101-0.218,8.869-1.269l71.935-27.298
	C488.384,128.74,493.702,116.918,489.69,106.346z"/>
<path style="fill:#FFA50A;" d="M307.525,113.61h-29.652c0.189,12.252-11.233,22.578-23.156,22.578
	c-12.779,0-22.272-10.289-23.096-22.578h-27.142l-65.568,4.857l6.739,40.441l51.595-4.058v143.748
	c0,17.317,14.038,31.355,31.355,31.355h37.084c27.102,0,49.072-21.97,49.072-49.072V154.849l48.759,3.835l4.941-40.562
	L307.525,113.61z"/>
<circle style="fill:#FFB69E;" cx="255.999" cy="45.979" r="45.979"/>
<g>
</g>
<g>
</g>
<g>
</g>
<g>
</g>
<g>
</g>
<g>
</g>
<g>
</g>
<g>
</g>
<g>
</g>
<g>
</g>
<g>
</g>
<g>
</g>
<g>
</g>
<g>
</g>
<g>
</g>
</svg>
